<svg width="24" height="24" viewBox="0 0 24 24" fill="none" xmlns="http://www.w3.org/2000/svg">
<path d="M10.4375 2.25C10.6301 2.2501 10.8153 2.32429 10.9547 2.4572C11.0941 2.59012 11.177 2.77157 11.1863 2.96396C11.1955 3.15634 11.1304 3.34492 11.0044 3.4906C10.8784 3.63629 10.7012 3.72791 10.5095 3.7465L10.4375 3.75H6C5.42161 3.75 4.86544 3.97273 4.44694 4.37196C4.02844 4.7712 3.77975 5.31626 3.7525 5.894L3.75 6V18C3.75 18.5784 3.97273 19.1346 4.37196 19.5531C4.7712 19.9716 5.31626 20.2203 5.894 20.2475L6 20.25H18C18.5784 20.25 19.1346 20.0273 19.5531 19.628C19.9716 19.2288 20.2203 18.6837 20.2475 18.106L20.25 18V13.5625C20.2501 13.3699 20.3243 13.1847 20.4572 13.0453C20.5901 12.9059 20.7716 12.823 20.964 12.8137C21.1563 12.8045 21.3449 12.8696 21.4906 12.9956C21.6363 13.1216 21.7279 13.2988 21.7465 13.4905L21.75 13.5625V18C21.75 18.9735 21.3714 19.9089 20.6943 20.6083C20.0171 21.3078 19.0945 21.7165 18.1215 21.748L18 21.75H6C5.02648 21.75 4.09112 21.3714 3.39168 20.6943C2.69224 20.0171 2.28354 19.0945 2.252 18.1215L2.25 18V6C2.25001 5.02648 2.62861 4.09112 3.30575 3.39168C3.98289 2.69224 4.90549 2.28354 5.8785 2.252L6 2.25H10.4375Z" fill="#333333" stroke="#333333" stroke-width="0.8"/>
<path d="M19.2237 3.21845C19.3598 3.08303 19.5426 3.00492 19.7345 3.00022C19.9264 2.99553 20.1128 3.06459 20.2553 3.1932C20.3978 3.32181 20.4856 3.50017 20.5005 3.69155C20.5155 3.88293 20.4565 4.07276 20.3357 4.22195L20.2842 4.27895L11.2842 13.279C11.1486 13.4166 10.9651 13.4966 10.772 13.5022C10.5788 13.5079 10.391 13.4388 10.2475 13.3093C10.1041 13.1799 10.0161 13.0001 10.002 12.8074C9.98789 12.6147 10.0487 12.4239 10.1717 12.275L10.2232 12.218L19.2232 3.21795L19.2237 3.21845Z" fill="#333333" stroke="#333333" stroke-width="0.8"/>
<path d="M21 2.25C21.1864 2.25001 21.3662 2.31946 21.5042 2.44481C21.6422 2.57016 21.7286 2.74242 21.7465 2.928L21.75 3V8.5C21.7499 8.69261 21.6757 8.8778 21.5428 9.01719C21.4099 9.15659 21.2284 9.23951 21.036 9.24876C20.8437 9.25802 20.6551 9.1929 20.5094 9.06691C20.3637 8.94092 20.2721 8.76371 20.2535 8.572L20.25 8.5V3.75H15.5C15.3136 3.74999 15.1338 3.68054 14.9958 3.55519C14.8578 3.42984 14.7714 3.25758 14.7535 3.072L14.75 3C14.75 2.81356 14.8195 2.6338 14.9448 2.49579C15.0702 2.35778 15.2424 2.2714 15.428 2.2535L15.5 2.25H21Z" fill="#333333" stroke="#333333" stroke-width="0.8"/>
</svg>
