<svg width="119" height="119" viewBox="0 0 119 119" fill="none" xmlns="http://www.w3.org/2000/svg">
<path d="M59.5 0C26.6382 0 0 26.6382 0 59.5C0 92.3618 26.6382 119 59.5 119C92.3618 119 119 92.3618 119 59.5C119 26.6382 92.3618 0 59.5 0ZM87.9331 49.0458L57.2906 79.6864C56.5171 80.4619 55.5016 80.8486 54.4861 80.8486C53.4707 80.8486 52.4572 80.4619 51.6817 79.6864L35.0356 63.0402C33.6373 61.642 33.2942 59.3909 34.4465 57.7864C34.7805 57.3155 35.2132 56.9231 35.7145 56.6367C36.2157 56.3503 36.7735 56.1768 37.3488 56.1283C37.924 56.0797 38.503 56.1573 39.0451 56.3557C39.5873 56.554 40.0796 56.8684 40.4878 57.2767L51.6797 68.4686C52.4236 69.2123 53.4323 69.63 54.4841 69.63C55.536 69.63 56.5447 69.2123 57.2886 68.4686L82.4769 43.2823C82.885 42.874 83.3774 42.5596 83.9196 42.3613C84.4617 42.1629 85.0407 42.0853 85.6159 42.1339C86.1912 42.1824 86.7489 42.3559 87.2502 42.6423C87.7515 42.9287 88.1842 43.3211 88.5182 43.792C89.6744 45.3965 89.3293 47.6476 87.9331 49.0458Z" fill="#E03030"/>
</svg>
