<svg width="20" height="20" viewBox="0 0 20 20" fill="none" xmlns="http://www.w3.org/2000/svg">
<g clip-path="url(#clip0_3533_864)">
<path d="M17.3038 6.99454C16.7156 6.99454 16.2744 7.44536 16.2744 8.04645V16.0109C16.2744 16.7623 15.6862 17.3634 15.098 17.3634H4.06855C3.48031 17.3634 2.89208 16.7623 2.89208 16.0109V4.28962C2.89208 3.53825 3.33325 2.93716 4.06855 2.93716H12.598C13.1862 2.93716 13.6274 2.48634 13.6274 1.88525C13.6274 1.28416 13.1862 0.833336 12.598 0.833336H4.06855C2.30384 0.833336 0.833252 2.33607 0.833252 4.13935V15.8607C0.833252 17.8142 2.15678 19.1667 4.06855 19.1667H15.098C16.8627 19.1667 18.1862 17.6639 18.3333 15.8607V8.04645C18.3333 7.44536 17.8921 6.99454 17.3038 6.99454Z" fill="#343957"/>
<path d="M6.09849 15C5.79545 15 5.49242 14.8506 5.34091 14.7012C4.88636 14.253 4.88636 13.6555 5.34091 13.2073L17.3106 2.0028C17.7652 1.55462 18.3712 1.55462 18.8258 2.0028C19.2803 2.45098 19.2803 3.04855 18.8258 3.49673L6.85606 14.7012C6.70455 15 6.40152 15 6.09849 15Z" fill="#343957"/>
</g>
<defs>
<clipPath id="clip0_3533_864">
<rect width="20" height="20" fill="white"/>
</clipPath>
</defs>
</svg>
