<svg width="19" height="19" viewBox="0 0 19 19" fill="none" xmlns="http://www.w3.org/2000/svg">
<path d="M9.49992 19C4.4373 19 0.333252 14.896 0.333252 9.83334C0.333252 4.77072 4.4373 0.666672 9.49992 0.666672C14.5625 0.666672 18.6666 4.77072 18.6666 9.83334C18.6666 14.896 14.5625 19 9.49992 19ZM9.49992 1.9762C5.40155 1.9762 1.64278 5.73497 1.64278 9.83334C1.64278 13.9317 5.40155 17.6905 9.49992 17.6905C13.5983 17.6905 17.3571 13.9317 17.3571 9.83334C17.3571 5.73497 13.5983 1.9762 9.49992 1.9762ZM13.6079 14.0068C13.5269 14.0879 13.4307 14.1523 13.3248 14.1962C13.2189 14.2402 13.1053 14.2628 12.9907 14.2628C12.876 14.2628 12.7625 14.2402 12.6566 14.1962C12.5507 14.1523 12.4545 14.0879 12.3735 14.0068L9.59551 11.2293L6.81758 14.0068C6.65388 14.1705 6.43184 14.2626 6.20029 14.2626C5.96875 14.2626 5.74667 14.1707 5.58291 14.007C5.41916 13.8433 5.32714 13.6213 5.3271 13.3897C5.32706 13.1582 5.419 12.9361 5.5827 12.7723L8.36063 9.99441L5.5827 7.21647C5.419 7.05272 5.32706 6.83064 5.3271 6.5991C5.32714 6.36755 5.41916 6.14551 5.58291 5.98181C5.74667 5.81811 5.96875 5.72617 6.20029 5.72621C6.43184 5.72625 6.65388 5.81827 6.81758 5.98203L9.59551 8.75997L12.3735 5.98203C12.454 5.89865 12.5503 5.83214 12.6568 5.78638C12.7633 5.74063 12.8779 5.71655 12.9938 5.71554C13.1097 5.71453 13.2247 5.73662 13.332 5.78052C13.4393 5.82441 13.5367 5.88924 13.6187 5.97121C13.7007 6.05318 13.7655 6.15065 13.8094 6.25794C13.8533 6.36523 13.8754 6.48019 13.8744 6.59611C13.8734 6.71203 13.8493 6.82658 13.8035 6.9331C13.7578 7.03961 13.6913 7.13594 13.6079 7.21647L10.83 9.99441L13.6079 12.7723C13.7716 12.9361 13.8635 13.1581 13.8635 13.3896C13.8635 13.6211 13.7716 13.8431 13.6079 14.0068Z" fill="#6D6D6D" stroke="#6D6D6D" stroke-width="0.5"/>
</svg>
