<svg width="36" height="36" viewBox="0 0 36 36" fill="none" xmlns="http://www.w3.org/2000/svg">
<path d="M14.4 3.60001H21.6C28.8 3.60001 32.4 7.20001 32.4 14.4V21.6C32.4 28.8 28.8 32.4 21.6 32.4H14.4C7.19998 32.4 3.59998 28.8 3.59998 21.6V14.4C3.59998 7.20001 7.19998 3.60001 14.4 3.60001Z" fill="#F0885B"/>
<path d="M32.2506 12.6H28.8C25.8176 12.6 23.4 10.1824 23.4 7.19999V3.74939C27.9225 4.50809 31.4919 8.07749 32.2506 12.6Z" fill="#B45F3A"/>
<path d="M16.704 23.06C16.552 23.06 16.424 23.008 16.32 22.904C16.216 22.8 16.164 22.672 16.164 22.52V15.176C16.164 15.024 16.216 14.896 16.32 14.792C16.424 14.68 16.552 14.624 16.704 14.624H19.44C20.2 14.624 20.82 14.752 21.3 15.008C21.78 15.264 22.124 15.592 22.332 15.992C22.54 16.392 22.644 16.824 22.644 17.288C22.644 17.752 22.54 18.184 22.332 18.584C22.124 18.984 21.78 19.312 21.3 19.568C20.82 19.824 20.2 19.952 19.44 19.952H17.256V22.52C17.256 22.672 17.2 22.8 17.088 22.904C16.984 23.008 16.856 23.06 16.704 23.06ZM19.332 18.92C20.148 18.92 20.72 18.764 21.048 18.452C21.384 18.14 21.552 17.752 21.552 17.288C21.552 16.824 21.384 16.436 21.048 16.124C20.72 15.812 20.148 15.656 19.332 15.656H17.256V18.92H19.332Z" fill="white"/>
<path d="M16.32 22.904L16.6736 22.5504H16.6736L16.32 22.904ZM16.32 14.792L16.6736 15.1456L16.6801 15.139L16.6864 15.1322L16.32 14.792ZM22.332 15.992L21.8884 16.2227L22.332 15.992ZM22.332 18.584L21.8884 18.3533L21.8884 18.3533L22.332 18.584ZM17.256 19.952V19.452H16.756V19.952H17.256ZM17.088 22.904L16.7478 22.5376L16.741 22.5439L16.7344 22.5504L17.088 22.904ZM21.048 18.452L20.7077 18.0856L20.7034 18.0897L21.048 18.452ZM21.048 16.124L20.7034 16.4863L20.7078 16.4904L21.048 16.124ZM17.256 15.656V15.156H16.756V15.656H17.256ZM17.256 18.92H16.756V19.42H17.256V18.92ZM16.704 22.56C16.6946 22.56 16.6887 22.5592 16.6858 22.5587C16.6843 22.5584 16.6833 22.5581 16.6828 22.558C16.6826 22.5579 16.6824 22.5579 16.6823 22.5578C16.6822 22.5578 16.6822 22.5578 16.6822 22.5578C16.6822 22.5578 16.6822 22.5578 16.6822 22.5578C16.6822 22.5578 16.6822 22.5578 16.6822 22.5578C16.6822 22.5578 16.682 22.5577 16.6815 22.5573C16.6806 22.5567 16.6779 22.5548 16.6736 22.5504L15.9664 23.2576C16.1677 23.4588 16.4244 23.56 16.704 23.56V22.56ZM16.6736 22.5504C16.6692 22.5461 16.6673 22.5434 16.6667 22.5425C16.6663 22.542 16.6662 22.5418 16.6662 22.5418C16.6662 22.5418 16.6662 22.5418 16.6662 22.5418C16.6662 22.5418 16.6662 22.5418 16.6662 22.5418C16.6662 22.5418 16.6662 22.5418 16.6662 22.5417C16.6661 22.5416 16.6661 22.5414 16.666 22.5412C16.6659 22.5407 16.6656 22.5397 16.6653 22.5382C16.6648 22.5353 16.664 22.5294 16.664 22.52H15.664C15.664 22.7996 15.7652 23.0563 15.9664 23.2576L16.6736 22.5504ZM16.664 22.52V15.176H15.664V22.52H16.664ZM16.664 15.176C16.664 15.1666 16.6648 15.1607 16.6653 15.1578C16.6656 15.1563 16.6659 15.1553 16.666 15.1548C16.6661 15.1546 16.6661 15.1544 16.6662 15.1543C16.6662 15.1542 16.6662 15.1542 16.6662 15.1542C16.6662 15.1542 16.6662 15.1542 16.6662 15.1542C16.6662 15.1542 16.6662 15.1542 16.6662 15.1542C16.6662 15.1542 16.6663 15.154 16.6667 15.1535C16.6673 15.1526 16.6692 15.1499 16.6736 15.1456L15.9664 14.4384C15.7652 14.6397 15.664 14.8964 15.664 15.176H16.664ZM16.6864 15.1322C16.6917 15.1266 16.6949 15.1241 16.6958 15.1235C16.6965 15.1229 16.696 15.1234 16.6944 15.1241C16.6928 15.1248 16.692 15.1249 16.6926 15.1248C16.6933 15.1246 16.6968 15.124 16.704 15.124V14.124C16.4121 14.124 16.1516 14.2385 15.9536 14.4518L16.6864 15.1322ZM16.704 15.124H19.44V14.124H16.704V15.124ZM19.44 15.124C20.1487 15.124 20.6801 15.2441 21.0647 15.4492L21.5353 14.5668C20.9599 14.2599 20.2513 14.124 19.44 14.124V15.124ZM21.0647 15.4492C21.4743 15.6676 21.7359 15.9294 21.8884 16.2227L22.7756 15.7613C22.5121 15.2546 22.0857 14.8604 21.5353 14.5668L21.0647 15.4492ZM21.8884 16.2227C22.0582 16.5493 22.144 16.9019 22.144 17.288H23.144C23.144 16.7461 23.0218 16.2347 22.7756 15.7613L21.8884 16.2227ZM22.144 17.288C22.144 17.6741 22.0582 18.0267 21.8884 18.3533L22.7756 18.8147C23.0218 18.3413 23.144 17.8299 23.144 17.288H22.144ZM21.8884 18.3533C21.7359 18.6466 21.4743 18.9084 21.0647 19.1268L21.5353 20.0092C22.0857 19.7156 22.5121 19.3214 22.7756 18.8147L21.8884 18.3533ZM21.0647 19.1268C20.6801 19.3319 20.1487 19.452 19.44 19.452V20.452C20.2513 20.452 20.9599 20.3161 21.5353 20.0092L21.0647 19.1268ZM19.44 19.452H17.256V20.452H19.44V19.452ZM16.756 19.952V22.52H17.756V19.952H16.756ZM16.756 22.52C16.756 22.5272 16.7554 22.5307 16.7552 22.5314C16.7551 22.532 16.7552 22.5312 16.7559 22.5296C16.7566 22.528 16.7571 22.5275 16.7565 22.5282C16.7559 22.5291 16.7534 22.5323 16.7478 22.5376L17.4282 23.2704C17.6415 23.0724 17.756 22.8119 17.756 22.52H16.756ZM16.7344 22.5504C16.7301 22.5548 16.7274 22.5567 16.7265 22.5573C16.726 22.5577 16.7258 22.5578 16.7258 22.5578C16.7258 22.5578 16.7258 22.5578 16.7258 22.5578C16.7258 22.5578 16.7258 22.5578 16.7258 22.5578C16.7258 22.5578 16.7258 22.5578 16.7257 22.5578C16.7256 22.5579 16.7254 22.5579 16.7252 22.558C16.7247 22.5581 16.7237 22.5584 16.7222 22.5587C16.7193 22.5592 16.7134 22.56 16.704 22.56V23.56C16.9836 23.56 17.2403 23.4588 17.4416 23.2576L16.7344 22.5504ZM19.332 19.42C20.183 19.42 20.921 19.2629 21.3926 18.8143L20.7034 18.0897C20.519 18.2651 20.113 18.42 19.332 18.42V19.42ZM21.3882 18.8184C21.8275 18.4105 22.052 17.8891 22.052 17.288H21.052C21.052 17.6149 20.9405 17.8695 20.7078 18.0856L21.3882 18.8184ZM22.052 17.288C22.052 16.6869 21.8275 16.1655 21.3882 15.7576L20.7078 16.4904C20.9405 16.7065 21.052 16.9611 21.052 17.288H22.052ZM21.3926 15.7617C20.921 15.3131 20.183 15.156 19.332 15.156V16.156C20.113 16.156 20.519 16.3109 20.7034 16.4863L21.3926 15.7617ZM19.332 15.156H17.256V16.156H19.332V15.156ZM16.756 15.656V18.92H17.756V15.656H16.756ZM17.256 19.42H19.332V18.42H17.256V19.42Z" fill="white"/>
</svg>
