<svg width="36" height="36" viewBox="0 0 36 36" fill="none" xmlns="http://www.w3.org/2000/svg">
<path d="M14.4 3.60001H21.6C28.8 3.60001 32.4 7.20001 32.4 14.4V21.6C32.4 28.8 28.8 32.4 21.6 32.4H14.4C7.19998 32.4 3.59998 28.8 3.59998 21.6V14.4C3.59998 7.20001 7.19998 3.60001 14.4 3.60001Z" fill="#44A1E4"/>
<path d="M32.2506 12.6H28.8C25.8176 12.6 23.4 10.1824 23.4 7.19999V3.74939C27.9225 4.50809 31.4919 8.07749 32.2506 12.6Z" fill="#2E7EB8"/>
<path d="M15.492 23.66C15.332 23.66 15.188 23.616 15.06 23.528C14.94 23.432 14.848 23.296 14.784 23.12L12.432 15.896C12.408 15.808 12.396 15.74 12.396 15.692C12.388 15.54 12.432 15.416 12.528 15.32C12.632 15.216 12.764 15.164 12.924 15.164C13.052 15.164 13.164 15.204 13.26 15.284C13.356 15.364 13.424 15.468 13.464 15.596L15.48 22.22L17.508 15.62C17.548 15.484 17.624 15.376 17.736 15.296C17.856 15.208 17.988 15.164 18.132 15.164C18.276 15.164 18.404 15.208 18.516 15.296C18.636 15.376 18.716 15.484 18.756 15.62L20.784 22.22L22.8 15.596C22.84 15.468 22.908 15.364 23.004 15.284C23.1 15.204 23.212 15.164 23.34 15.164C23.5 15.164 23.628 15.216 23.724 15.32C23.828 15.416 23.876 15.54 23.868 15.692C23.868 15.74 23.856 15.808 23.832 15.896L21.48 23.12C21.416 23.296 21.32 23.432 21.192 23.528C21.072 23.616 20.932 23.66 20.772 23.66C20.612 23.66 20.464 23.612 20.328 23.516C20.2 23.412 20.112 23.28 20.064 23.12L18.132 17L16.2 23.12C16.152 23.28 16.06 23.412 15.924 23.516C15.796 23.612 15.652 23.66 15.492 23.66Z" fill="white"/>
<path d="M15.06 23.528L14.7476 23.9184L14.7618 23.9298L14.7767 23.94L15.06 23.528ZM14.784 23.12L14.3086 23.2748L14.3112 23.2829L14.3141 23.2909L14.784 23.12ZM12.432 15.896L11.9496 16.0276L11.9528 16.0393L11.9566 16.0508L12.432 15.896ZM12.396 15.692H12.896V15.6789L12.8953 15.6657L12.396 15.692ZM12.528 15.32L12.1744 14.9665L12.1744 14.9665L12.528 15.32ZM13.26 15.284L12.9399 15.6681L12.9399 15.6681L13.26 15.284ZM13.464 15.596L13.9423 15.4504L13.9412 15.4469L13.464 15.596ZM15.48 22.22L15.0017 22.3656L15.4777 23.9298L15.9579 22.3669L15.48 22.22ZM17.508 15.62L17.986 15.7669L17.9877 15.7611L17.508 15.62ZM17.736 15.296L18.0266 15.7029L18.0317 15.6992L17.736 15.296ZM18.516 15.296L18.2071 15.6892L18.2224 15.7012L18.2386 15.712L18.516 15.296ZM18.756 15.62L18.2763 15.7611L18.2781 15.7669L18.756 15.62ZM20.784 22.22L20.3061 22.3669L20.7863 23.9298L21.2623 22.3656L20.784 22.22ZM22.8 15.596L22.3227 15.4469L22.3217 15.4504L22.8 15.596ZM23.004 15.284L23.3241 15.6681L23.3241 15.6681L23.004 15.284ZM23.724 15.32L23.3566 15.6591L23.3702 15.6738L23.3849 15.6874L23.724 15.32ZM23.868 15.692L23.3687 15.6657L23.368 15.6789V15.692H23.868ZM23.832 15.896L24.3074 16.0508L24.3112 16.0393L24.3144 16.0276L23.832 15.896ZM21.48 23.12L21.9499 23.2909L21.9528 23.2829L21.9554 23.2748L21.48 23.12ZM21.192 23.528L21.4877 23.9312L21.492 23.928L21.192 23.528ZM20.328 23.516L20.0127 23.9041L20.0258 23.9147L20.0397 23.9245L20.328 23.516ZM20.064 23.12L20.543 22.9763L20.5408 22.9695L20.064 23.12ZM18.132 17L18.6088 16.8495L18.132 15.3391L17.6552 16.8495L18.132 17ZM16.2 23.12L15.7231 22.9695L15.7211 22.9763L16.2 23.12ZM15.924 23.516L16.224 23.916L16.2277 23.9132L15.924 23.516ZM15.492 23.16C15.4299 23.16 15.3853 23.1449 15.3433 23.116L14.7767 23.94C14.9907 24.0871 15.2341 24.16 15.492 24.16V23.16ZM15.3723 23.1376C15.3382 23.1103 15.2934 23.0578 15.2539 22.9491L14.3141 23.2909C14.4026 23.5343 14.5418 23.7537 14.7476 23.9184L15.3723 23.1376ZM15.2594 22.9652L12.9074 15.7412L11.9566 16.0508L14.3086 23.2748L15.2594 22.9652ZM12.9144 15.7644C12.9052 15.7308 12.9001 15.7072 12.8974 15.6921C12.8945 15.6755 12.896 15.6773 12.896 15.692H11.896C11.896 15.808 11.9224 15.9278 11.9496 16.0276L12.9144 15.7644ZM12.8953 15.6657C12.8948 15.6553 12.8953 15.6496 12.8955 15.6479C12.8958 15.6464 12.8957 15.6481 12.8942 15.6522C12.8927 15.6564 12.8905 15.6611 12.8876 15.6657C12.8847 15.6702 12.8823 15.6728 12.8816 15.6736L12.1744 14.9665C11.9655 15.1754 11.8822 15.4438 11.8967 15.7183L12.8953 15.6657ZM12.8816 15.6736C12.8847 15.6704 12.8866 15.6691 12.887 15.6689C12.8873 15.6686 12.8876 15.6685 12.8883 15.6682C12.8889 15.668 12.8988 15.664 12.924 15.664V14.664C12.6442 14.664 12.3809 14.76 12.1744 14.9665L12.8816 15.6736ZM12.924 15.664C12.9299 15.664 12.9333 15.6645 12.9348 15.6647C12.9362 15.6649 12.9364 15.6651 12.9358 15.6649C12.9352 15.6647 12.9349 15.6645 12.9351 15.6646C12.9354 15.6647 12.937 15.6657 12.9399 15.6681L13.5801 14.8999C13.3919 14.7431 13.1659 14.664 12.924 14.664V15.664ZM12.9399 15.6681C12.9566 15.682 12.9733 15.7019 12.9868 15.7451L13.9412 15.4469C13.8747 15.2341 13.7554 15.046 13.5801 14.8999L12.9399 15.6681ZM12.9857 15.7416L15.0017 22.3656L15.9583 22.0744L13.9423 15.4504L12.9857 15.7416ZM15.9579 22.3669L17.9859 15.7669L17.0301 15.4731L15.0021 22.0731L15.9579 22.3669ZM17.9877 15.7611C17.9972 15.7289 18.0085 15.7158 18.0266 15.7029L17.4454 14.8891C17.2395 15.0362 17.0988 15.2392 17.0283 15.4789L17.9877 15.7611ZM18.0317 15.6992C18.069 15.6718 18.0981 15.664 18.132 15.664V14.664C17.8779 14.664 17.643 14.7442 17.4403 14.8928L18.0317 15.6992ZM18.132 15.664C18.1653 15.664 18.1842 15.6712 18.2071 15.6892L18.8249 14.9028C18.6238 14.7448 18.3867 14.664 18.132 14.664V15.664ZM18.2386 15.712C18.2629 15.7282 18.27 15.7398 18.2763 15.7611L19.2357 15.4789C19.162 15.2283 19.0091 15.0238 18.7933 14.88L18.2386 15.712ZM18.2781 15.7669L20.3061 22.3669L21.2619 22.0731L19.2339 15.4731L18.2781 15.7669ZM21.2623 22.3656L23.2783 15.7416L22.3217 15.4504L20.3057 22.0744L21.2623 22.3656ZM23.2772 15.7451C23.2907 15.7019 23.3074 15.682 23.3241 15.6681L22.6839 14.8999C22.5086 15.046 22.3893 15.2341 22.3228 15.4469L23.2772 15.7451ZM23.3241 15.6681C23.327 15.6657 23.3286 15.6647 23.3289 15.6646C23.3291 15.6645 23.3287 15.6647 23.3282 15.6649C23.3276 15.6651 23.3278 15.6649 23.3292 15.6647C23.3307 15.6645 23.3341 15.664 23.34 15.664V14.664C23.0981 14.664 22.8721 14.7431 22.6839 14.8999L23.3241 15.6681ZM23.34 15.664C23.3656 15.664 23.3723 15.668 23.3678 15.6662C23.3659 15.6654 23.3631 15.664 23.3603 15.6621C23.3575 15.6601 23.3562 15.6588 23.3566 15.6591L24.0914 14.9809C23.8879 14.7604 23.6194 14.664 23.34 14.664V15.664ZM23.3849 15.6874C23.3854 15.6879 23.3833 15.686 23.3801 15.6815C23.3769 15.6769 23.374 15.6713 23.3717 15.6655C23.3695 15.6598 23.3688 15.6559 23.3687 15.655C23.3686 15.6542 23.3691 15.6575 23.3687 15.6657L24.3673 15.7183C24.3825 15.4305 24.2855 15.1578 24.0631 14.9526L23.3849 15.6874ZM23.368 15.692C23.368 15.6773 23.3695 15.6755 23.3666 15.6921C23.3639 15.7072 23.3588 15.7308 23.3496 15.7644L24.3144 16.0276C24.3416 15.9278 24.368 15.808 24.368 15.692H23.368ZM23.3566 15.7412L21.0046 22.9652L21.9554 23.2748L24.3074 16.0508L23.3566 15.7412ZM21.0101 22.9491C20.9735 23.0498 20.9298 23.0996 20.892 23.128L21.492 23.928C21.7102 23.7644 21.8585 23.5423 21.9499 23.2909L21.0101 22.9491ZM20.8963 23.1248C20.8687 23.1451 20.8341 23.16 20.772 23.16V24.16C21.0299 24.16 21.2753 24.0869 21.4877 23.9312L20.8963 23.1248ZM20.772 23.16C20.7196 23.16 20.6716 23.1465 20.6163 23.1075L20.0397 23.9245C20.2564 24.0775 20.5044 24.16 20.772 24.16V23.16ZM20.6433 23.1279C20.5942 23.088 20.5625 23.0416 20.5429 22.9763L19.5851 23.2637C19.6615 23.5184 19.8058 23.736 20.0127 23.9041L20.6433 23.1279ZM20.5408 22.9695L18.6088 16.8495L17.6552 17.1505L19.5872 23.2705L20.5408 22.9695ZM17.6552 16.8495L15.7232 22.9695L16.6768 23.2705L18.6088 17.1505L17.6552 16.8495ZM15.7211 22.9763C15.7041 23.0328 15.6749 23.0771 15.6203 23.1188L16.2277 23.9132C16.4451 23.7469 16.5999 23.5272 16.6789 23.2637L15.7211 22.9763ZM15.624 23.116C15.5825 23.1471 15.5438 23.16 15.492 23.16V24.16C15.7602 24.16 16.0094 24.0769 16.224 23.916L15.624 23.116Z" fill="white"/>
</svg>
