<svg width="37" height="36" viewBox="0 0 37 36" fill="none" xmlns="http://www.w3.org/2000/svg">
<path d="M14.9 3.60001H22.1C29.3 3.60001 32.9 7.20001 32.9 14.4V21.6C32.9 28.8 29.3 32.4 22.1 32.4H14.9C7.69998 32.4 4.09998 28.8 4.09998 21.6V14.4C4.09998 7.20001 7.69998 3.60001 14.9 3.60001Z" fill="#2C9549"/>
<path d="M32.7506 12.6H29.3C26.3176 12.6 23.9 10.1824 23.9 7.19999V3.74939C28.4225 4.50809 31.9919 8.07749 32.7506 12.6Z" fill="#28723D"/>
<path d="M16.204 22C16.052 22 15.924 21.948 15.82 21.844C15.716 21.74 15.664 21.612 15.664 21.46V14.176C15.664 14.024 15.716 13.896 15.82 13.792C15.924 13.68 16.052 13.624 16.204 13.624H21.016C21.16 13.624 21.28 13.676 21.376 13.78C21.48 13.876 21.532 13.996 21.532 14.14C21.532 14.284 21.48 14.404 21.376 14.5C21.28 14.596 21.16 14.644 21.016 14.644H16.756V17.296H20.584C20.728 17.296 20.848 17.348 20.944 17.452C21.048 17.548 21.1 17.668 21.1 17.812C21.1 17.956 21.048 18.076 20.944 18.172C20.848 18.268 20.728 18.316 20.584 18.316H16.756V20.98H21.016C21.16 20.98 21.28 21.032 21.376 21.136C21.48 21.232 21.532 21.352 21.532 21.496C21.532 21.64 21.48 21.76 21.376 21.856C21.28 21.952 21.16 22 21.016 22H16.204Z" fill="white"/>
<path d="M15.82 21.844L16.1736 21.4904V21.4904L15.82 21.844ZM15.82 13.792L16.1736 14.1456L16.1801 14.139L16.1864 14.1322L15.82 13.792ZM21.376 13.78L21.0086 14.1191L21.0222 14.1338L21.0369 14.1474L21.376 13.78ZM21.376 14.5L21.0369 14.1326L21.0295 14.1394L21.0224 14.1464L21.376 14.5ZM16.756 14.644V14.144H16.256V14.644H16.756ZM16.756 17.296H16.256V17.796H16.756V17.296ZM20.944 17.452L20.5766 17.7911L20.5902 17.8058L20.6049 17.8194L20.944 17.452ZM20.944 18.172L20.6049 17.8046L20.5975 17.8114L20.5904 17.8184L20.944 18.172ZM16.756 18.316V17.816H16.256V18.316H16.756ZM16.756 20.98H16.256V21.48H16.756V20.98ZM21.376 21.136L21.0086 21.4751L21.0222 21.4898L21.0369 21.5034L21.376 21.136ZM21.376 21.856L21.0369 21.4886L21.0295 21.4954L21.0224 21.5024L21.376 21.856ZM16.204 21.5C16.1946 21.5 16.1887 21.4992 16.1858 21.4987C16.1843 21.4984 16.1833 21.4981 16.1828 21.498C16.1826 21.4979 16.1824 21.4979 16.1823 21.4978C16.1822 21.4978 16.1822 21.4978 16.1822 21.4978C16.1822 21.4978 16.1822 21.4978 16.1822 21.4978C16.1822 21.4978 16.1822 21.4978 16.1822 21.4978C16.1822 21.4978 16.182 21.4977 16.1815 21.4973C16.1806 21.4967 16.1779 21.4948 16.1736 21.4904L15.4664 22.1976C15.6677 22.3988 15.9244 22.5 16.204 22.5V21.5ZM16.1736 21.4904C16.1692 21.4861 16.1673 21.4834 16.1667 21.4825C16.1663 21.482 16.1662 21.4818 16.1662 21.4818C16.1662 21.4818 16.1662 21.4818 16.1662 21.4818C16.1662 21.4818 16.1662 21.4818 16.1662 21.4818C16.1662 21.4818 16.1662 21.4818 16.1662 21.4817C16.1661 21.4816 16.1661 21.4814 16.166 21.4811C16.1659 21.4807 16.1656 21.4797 16.1653 21.4782C16.1648 21.4753 16.164 21.4694 16.164 21.46H15.164C15.164 21.7396 15.2652 21.9963 15.4664 22.1976L16.1736 21.4904ZM16.164 21.46V14.176H15.164V21.46H16.164ZM16.164 14.176C16.164 14.1666 16.1648 14.1607 16.1653 14.1578C16.1656 14.1563 16.1659 14.1553 16.166 14.1548C16.1661 14.1546 16.1661 14.1544 16.1662 14.1543C16.1662 14.1542 16.1662 14.1542 16.1662 14.1542C16.1662 14.1542 16.1662 14.1542 16.1662 14.1542C16.1662 14.1542 16.1662 14.1542 16.1662 14.1542C16.1662 14.1542 16.1663 14.154 16.1667 14.1535C16.1673 14.1526 16.1692 14.1499 16.1736 14.1456L15.4664 13.4384C15.2652 13.6397 15.164 13.8964 15.164 14.176H16.164ZM16.1864 14.1322C16.1917 14.1266 16.1949 14.1241 16.1958 14.1235C16.1965 14.1229 16.196 14.1234 16.1944 14.1241C16.1928 14.1248 16.192 14.1249 16.1926 14.1248C16.1933 14.1246 16.1968 14.124 16.204 14.124V13.124C15.9121 13.124 15.6516 13.2385 15.4536 13.4518L16.1864 14.1322ZM16.204 14.124H21.016V13.124H16.204V14.124ZM21.016 14.124C21.0218 14.124 21.0238 14.1245 21.0229 14.1243C21.0218 14.1241 21.019 14.1234 21.0152 14.1218C21.0114 14.1201 21.0085 14.1183 21.0068 14.1171C21.0051 14.1159 21.0058 14.1161 21.0086 14.1191L21.7434 13.4409C21.5509 13.2323 21.2968 13.124 21.016 13.124V14.124ZM21.0369 14.1474C21.0399 14.1502 21.0401 14.1509 21.0389 14.1492C21.0377 14.1475 21.0359 14.1446 21.0342 14.1408C21.0326 14.137 21.0319 14.1342 21.0317 14.1331C21.0315 14.1322 21.032 14.1342 21.032 14.14H22.032C22.032 13.8592 21.9237 13.6051 21.7151 13.4126L21.0369 14.1474ZM21.032 14.14C21.032 14.1458 21.0315 14.1478 21.0317 14.1469C21.0319 14.1458 21.0326 14.1429 21.0342 14.1392C21.0359 14.1354 21.0377 14.1325 21.0389 14.1308C21.0401 14.1291 21.0399 14.1298 21.0369 14.1326L21.7151 14.8674C21.9237 14.6749 22.032 14.4208 22.032 14.14H21.032ZM21.0224 14.1464C21.0207 14.1482 21.0205 14.1481 21.0222 14.147C21.0238 14.1459 21.026 14.1447 21.0283 14.1438C21.0305 14.1429 21.0314 14.1428 21.0301 14.1431C21.0286 14.1433 21.0242 14.144 21.016 14.144V15.144C21.2837 15.144 21.5337 15.0495 21.7296 14.8536L21.0224 14.1464ZM21.016 14.144H16.756V15.144H21.016V14.144ZM16.256 14.644V17.296H17.256V14.644H16.256ZM16.756 17.796H20.584V16.796H16.756V17.796ZM20.584 17.796C20.5898 17.796 20.5918 17.7965 20.5909 17.7963C20.5898 17.7961 20.5869 17.7954 20.5832 17.7938C20.5794 17.7921 20.5765 17.7903 20.5748 17.7891C20.5731 17.7879 20.5738 17.7881 20.5766 17.7911L21.3114 17.1129C21.1189 16.9043 20.8648 16.796 20.584 16.796V17.796ZM20.6049 17.8194C20.6079 17.8222 20.6081 17.8229 20.6069 17.8212C20.6057 17.8195 20.6039 17.8166 20.6022 17.8128C20.6006 17.8091 20.5999 17.8062 20.5997 17.8051C20.5995 17.8042 20.6 17.8062 20.6 17.812H21.6C21.6 17.5312 21.4917 17.2771 21.2831 17.0846L20.6049 17.8194ZM20.6 17.812C20.6 17.8178 20.5995 17.8198 20.5997 17.8189C20.5999 17.8178 20.6006 17.8149 20.6022 17.8112C20.6039 17.8074 20.6057 17.8045 20.6069 17.8028C20.6081 17.8011 20.6079 17.8018 20.6049 17.8046L21.2831 18.5394C21.4917 18.3469 21.6 18.0928 21.6 17.812H20.6ZM20.5904 17.8184C20.5887 17.8202 20.5885 17.8201 20.5901 17.819C20.5918 17.8179 20.594 17.8167 20.5963 17.8158C20.5985 17.8149 20.5994 17.8148 20.5981 17.8151C20.5966 17.8153 20.5922 17.816 20.584 17.816V18.816C20.8517 18.816 21.1017 18.7215 21.2976 18.5256L20.5904 17.8184ZM20.584 17.816H16.756V18.816H20.584V17.816ZM16.256 18.316V20.98H17.256V18.316H16.256ZM16.756 21.48H21.016V20.48H16.756V21.48ZM21.016 21.48C21.0218 21.48 21.0238 21.4805 21.0229 21.4803C21.0218 21.4801 21.0189 21.4794 21.0152 21.4778C21.0114 21.4761 21.0085 21.4743 21.0068 21.4731C21.0051 21.4719 21.0058 21.4721 21.0086 21.4751L21.7434 20.7969C21.5509 20.5883 21.2968 20.48 21.016 20.48V21.48ZM21.0369 21.5034C21.0399 21.5062 21.0401 21.5069 21.0389 21.5052C21.0377 21.5035 21.0359 21.5006 21.0342 21.4968C21.0326 21.4931 21.0319 21.4902 21.0317 21.4891C21.0315 21.4882 21.032 21.4902 21.032 21.496H22.032C22.032 21.2152 21.9237 20.9611 21.7151 20.7686L21.0369 21.5034ZM21.032 21.496C21.032 21.5018 21.0315 21.5038 21.0317 21.5029C21.0319 21.5018 21.0326 21.4989 21.0342 21.4952C21.0359 21.4914 21.0377 21.4885 21.0389 21.4868C21.0401 21.4851 21.0399 21.4858 21.0369 21.4886L21.7151 22.2234C21.9237 22.0309 22.032 21.7768 22.032 21.496H21.032ZM21.0224 21.5024C21.0207 21.5042 21.0205 21.5041 21.0222 21.503C21.0238 21.5019 21.026 21.5007 21.0283 21.4998C21.0305 21.4989 21.0314 21.4988 21.0301 21.4991C21.0286 21.4993 21.0242 21.5 21.016 21.5V22.5C21.2837 22.5 21.5337 22.4055 21.7296 22.2096L21.0224 21.5024ZM21.016 21.5H16.204V22.5H21.016V21.5Z" fill="white"/>
</svg>
