<svg width="20" height="20" viewBox="0 0 20 20" fill="none" xmlns="http://www.w3.org/2000/svg">
<g clip-path="url(#clip0_3533_859)">
<path d="M10.9166 11.6999L12.2977 9.90027C12.606 9.49863 13.1814 9.42291 13.583 9.73114C13.9846 10.0394 14.0603 10.6148 13.7521 11.0164L10.7271 14.9581C10.3602 15.4362 9.63965 15.4362 9.27273 14.9581L6.24773 11.0164C5.9395 10.6148 6.01521 10.0393 6.41685 9.73114C6.81847 9.42291 7.3939 9.49863 7.70211 9.90027L9.08325 11.6999V1.75C9.08325 1.24375 9.49367 0.833333 9.99992 0.833333C10.5062 0.833333 10.9166 1.24375 10.9166 1.75V11.6999ZM17.3333 10C17.3333 9.49375 17.7437 9.08333 18.2499 9.08333C18.7562 9.08333 19.1666 9.49375 19.1666 10V16.6C19.1666 18.0175 18.0175 19.1667 16.5999 19.1667H3.39992C1.98239 19.1667 0.833252 18.0175 0.833252 16.6V10C0.833252 9.49375 1.24367 9.08333 1.74992 9.08333C2.25617 9.08333 2.66659 9.49375 2.66659 10V16.6C2.66659 17.005 2.99491 17.3333 3.39992 17.3333H16.5999C17.0049 17.3333 17.3333 17.005 17.3333 16.6V10Z" fill="#343957"/>
</g>
<defs>
<clipPath id="clip0_3533_859">
<rect width="20" height="20" fill="white"/>
</clipPath>
</defs>
</svg>
