<svg width="36" height="36" viewBox="0 0 36 36" fill="none" xmlns="http://www.w3.org/2000/svg">
<path d="M14.4 3.60001H21.6C28.8 3.60001 32.4 7.20001 32.4 14.4V21.6C32.4 28.8 28.8 32.4 21.6 32.4H14.4C7.19998 32.4 3.59998 28.8 3.59998 21.6V14.4C3.59998 7.20001 7.19998 3.60001 14.4 3.60001Z" fill="#37D4EA"/>
<path d="M32.2506 12.6H28.8C25.8176 12.6 23.4 10.1824 23.4 7.19999V3.74939C27.9225 4.50809 31.4919 8.07749 32.2506 12.6Z" fill="#2BA1B1"/>
<path d="M15.204 23.06C15.052 23.06 14.924 23.008 14.82 22.904C14.716 22.8 14.664 22.672 14.664 22.52V15.116C14.664 14.964 14.716 14.836 14.82 14.732C14.924 14.62 15.052 14.564 15.204 14.564C15.356 14.564 15.484 14.62 15.588 14.732C15.7 14.836 15.756 14.964 15.756 15.116V18.308H20.304V15.116C20.304 14.964 20.356 14.836 20.46 14.732C20.564 14.62 20.692 14.564 20.844 14.564C20.996 14.564 21.124 14.62 21.228 14.732C21.34 14.836 21.396 14.964 21.396 15.116V22.52C21.396 22.672 21.34 22.8 21.228 22.904C21.124 23.008 20.996 23.06 20.844 23.06C20.692 23.06 20.564 23.008 20.46 22.904C20.356 22.8 20.304 22.672 20.304 22.52V19.328H15.756V22.52C15.756 22.672 15.7 22.8 15.588 22.904C15.484 23.008 15.356 23.06 15.204 23.06Z" fill="white"/>
<path d="M14.82 22.904L15.1736 22.5504H15.1736L14.82 22.904ZM14.82 14.732L15.1736 15.0856L15.1801 15.079L15.1864 15.0722L14.82 14.732ZM15.588 14.732L15.2216 15.0722L15.2342 15.0858L15.2478 15.0984L15.588 14.732ZM15.756 18.308H15.256V18.808H15.756V18.308ZM20.304 18.308V18.808H20.804V18.308H20.304ZM20.46 14.732L20.8136 15.0856L20.8201 15.079L20.8264 15.0722L20.46 14.732ZM21.228 14.732L20.8616 15.0722L20.8742 15.0858L20.8878 15.0984L21.228 14.732ZM21.228 22.904L20.8878 22.5376L20.881 22.5439L20.8744 22.5504L21.228 22.904ZM20.46 22.904L20.1064 23.2576L20.46 22.904ZM20.304 19.328H20.804V18.828H20.304V19.328ZM15.756 19.328V18.828H15.256V19.328H15.756ZM15.588 22.904L15.2478 22.5376L15.241 22.5439L15.2344 22.5504L15.588 22.904ZM15.204 22.56C15.1946 22.56 15.1887 22.5592 15.1858 22.5587C15.1843 22.5584 15.1833 22.5581 15.1828 22.558C15.1826 22.5579 15.1824 22.5579 15.1823 22.5578C15.1822 22.5578 15.1822 22.5578 15.1822 22.5578C15.1822 22.5578 15.1822 22.5578 15.1822 22.5578C15.1822 22.5578 15.1822 22.5578 15.1822 22.5578C15.1822 22.5578 15.182 22.5577 15.1815 22.5573C15.1806 22.5567 15.1779 22.5548 15.1736 22.5504L14.4664 23.2576C14.6677 23.4588 14.9244 23.56 15.204 23.56V22.56ZM15.1736 22.5504C15.1692 22.5461 15.1673 22.5434 15.1667 22.5425C15.1663 22.542 15.1662 22.5418 15.1662 22.5418C15.1662 22.5418 15.1662 22.5418 15.1662 22.5418C15.1662 22.5418 15.1662 22.5418 15.1662 22.5418C15.1662 22.5418 15.1662 22.5418 15.1662 22.5417C15.1661 22.5416 15.1661 22.5414 15.166 22.5412C15.1659 22.5407 15.1656 22.5397 15.1653 22.5382C15.1648 22.5353 15.164 22.5294 15.164 22.52H14.164C14.164 22.7996 14.2652 23.0563 14.4664 23.2576L15.1736 22.5504ZM15.164 22.52V15.116H14.164V22.52H15.164ZM15.164 15.116C15.164 15.1066 15.1648 15.1007 15.1653 15.0978C15.1656 15.0963 15.1659 15.0953 15.166 15.0948C15.1661 15.0946 15.1661 15.0944 15.1662 15.0943C15.1662 15.0942 15.1662 15.0942 15.1662 15.0942C15.1662 15.0942 15.1662 15.0942 15.1662 15.0942C15.1662 15.0942 15.1662 15.0942 15.1662 15.0942C15.1662 15.0942 15.1663 15.094 15.1667 15.0935C15.1673 15.0926 15.1692 15.0899 15.1736 15.0856L14.4664 14.3784C14.2652 14.5797 14.164 14.8364 14.164 15.116H15.164ZM15.1864 15.0722C15.1917 15.0666 15.1949 15.0641 15.1958 15.0635C15.1965 15.0629 15.196 15.0634 15.1944 15.0641C15.1928 15.0648 15.192 15.0649 15.1926 15.0648C15.1933 15.0646 15.1968 15.064 15.204 15.064V14.064C14.9121 14.064 14.6516 14.1785 14.4536 14.3918L15.1864 15.0722ZM15.204 15.064C15.2112 15.064 15.2147 15.0646 15.2154 15.0648C15.216 15.0649 15.2152 15.0648 15.2136 15.0641C15.212 15.0634 15.2115 15.0629 15.2122 15.0635C15.2131 15.0641 15.2163 15.0666 15.2216 15.0722L15.9544 14.3918C15.7564 14.1785 15.4959 14.064 15.204 14.064V15.064ZM15.2478 15.0984C15.2534 15.1037 15.2559 15.1069 15.2565 15.1078C15.2571 15.1085 15.2566 15.108 15.2559 15.1064C15.2552 15.1048 15.2551 15.104 15.2552 15.1046C15.2554 15.1053 15.256 15.1088 15.256 15.116H16.256C16.256 14.8241 16.1415 14.5636 15.9282 14.3656L15.2478 15.0984ZM15.256 15.116V18.308H16.256V15.116H15.256ZM15.756 18.808H20.304V17.808H15.756V18.808ZM20.804 18.308V15.116H19.804V18.308H20.804ZM20.804 15.116C20.804 15.1066 20.8048 15.1007 20.8053 15.0978C20.8056 15.0963 20.8059 15.0953 20.806 15.0948C20.8061 15.0946 20.8061 15.0944 20.8062 15.0943C20.8062 15.0942 20.8062 15.0942 20.8062 15.0942C20.8062 15.0942 20.8062 15.0942 20.8062 15.0942C20.8062 15.0942 20.8062 15.0942 20.8062 15.0942C20.8062 15.0942 20.8063 15.094 20.8067 15.0935C20.8073 15.0926 20.8092 15.0899 20.8136 15.0856L20.1064 14.3784C19.9052 14.5797 19.804 14.8364 19.804 15.116H20.804ZM20.8264 15.0722C20.8317 15.0666 20.8349 15.0641 20.8358 15.0635C20.8365 15.0629 20.836 15.0634 20.8344 15.0641C20.8328 15.0648 20.832 15.0649 20.8326 15.0648C20.8333 15.0646 20.8368 15.064 20.844 15.064V14.064C20.5521 14.064 20.2916 14.1785 20.0936 14.3918L20.8264 15.0722ZM20.844 15.064C20.8512 15.064 20.8547 15.0646 20.8554 15.0648C20.856 15.0649 20.8552 15.0648 20.8536 15.0641C20.852 15.0634 20.8515 15.0629 20.8522 15.0635C20.8531 15.0641 20.8563 15.0666 20.8616 15.0722L21.5944 14.3918C21.3964 14.1785 21.1359 14.064 20.844 14.064V15.064ZM20.8878 15.0984C20.8934 15.1037 20.8959 15.1069 20.8965 15.1078C20.8971 15.1085 20.8966 15.108 20.8959 15.1064C20.8952 15.1048 20.8951 15.104 20.8952 15.1046C20.8954 15.1053 20.896 15.1088 20.896 15.116H21.896C21.896 14.8241 21.7815 14.5636 21.5682 14.3656L20.8878 15.0984ZM20.896 15.116V22.52H21.896V15.116H20.896ZM20.896 22.52C20.896 22.5272 20.8954 22.5307 20.8952 22.5314C20.8951 22.532 20.8952 22.5312 20.8959 22.5296C20.8966 22.528 20.8971 22.5275 20.8965 22.5282C20.8959 22.5291 20.8934 22.5323 20.8878 22.5376L21.5682 23.2704C21.7815 23.0724 21.896 22.8119 21.896 22.52H20.896ZM20.8744 22.5504C20.8701 22.5548 20.8674 22.5567 20.8665 22.5573C20.866 22.5577 20.8658 22.5578 20.8658 22.5578C20.8658 22.5578 20.8658 22.5578 20.8658 22.5578C20.8658 22.5578 20.8658 22.5578 20.8658 22.5578C20.8658 22.5578 20.8658 22.5578 20.8657 22.5578C20.8656 22.5579 20.8654 22.5579 20.8652 22.558C20.8647 22.5581 20.8637 22.5584 20.8622 22.5587C20.8593 22.5592 20.8534 22.56 20.844 22.56V23.56C21.1236 23.56 21.3803 23.4588 21.5816 23.2576L20.8744 22.5504ZM20.844 22.56C20.8346 22.56 20.8287 22.5592 20.8258 22.5587C20.8243 22.5584 20.8233 22.5581 20.8229 22.558C20.8226 22.5579 20.8224 22.5579 20.8223 22.5578C20.8222 22.5578 20.8222 22.5578 20.8222 22.5578C20.8222 22.5578 20.8222 22.5578 20.8222 22.5578C20.8222 22.5578 20.8222 22.5578 20.8222 22.5578C20.8222 22.5578 20.822 22.5577 20.8215 22.5573C20.8206 22.5567 20.8179 22.5548 20.8136 22.5504L20.1064 23.2576C20.3077 23.4588 20.5644 23.56 20.844 23.56V22.56ZM20.8136 22.5504C20.8092 22.5461 20.8073 22.5434 20.8067 22.5425C20.8063 22.542 20.8062 22.5418 20.8062 22.5418C20.8062 22.5418 20.8062 22.5418 20.8062 22.5418C20.8062 22.5418 20.8062 22.5418 20.8062 22.5418C20.8062 22.5418 20.8062 22.5418 20.8062 22.5417C20.8061 22.5416 20.8061 22.5414 20.806 22.5412C20.8059 22.5407 20.8056 22.5397 20.8053 22.5382C20.8048 22.5353 20.804 22.5294 20.804 22.52H19.804C19.804 22.7996 19.9052 23.0563 20.1064 23.2576L20.8136 22.5504ZM20.804 22.52V19.328H19.804V22.52H20.804ZM20.304 18.828H15.756V19.828H20.304V18.828ZM15.256 19.328V22.52H16.256V19.328H15.256ZM15.256 22.52C15.256 22.5272 15.2554 22.5307 15.2552 22.5314C15.2551 22.532 15.2552 22.5312 15.2559 22.5296C15.2566 22.528 15.2571 22.5275 15.2565 22.5282C15.2559 22.5291 15.2534 22.5323 15.2478 22.5376L15.9282 23.2704C16.1415 23.0724 16.256 22.8119 16.256 22.52H15.256ZM15.2344 22.5504C15.2301 22.5548 15.2274 22.5567 15.2265 22.5573C15.226 22.5577 15.2258 22.5578 15.2258 22.5578C15.2258 22.5578 15.2258 22.5578 15.2258 22.5578C15.2258 22.5578 15.2258 22.5578 15.2258 22.5578C15.2258 22.5578 15.2258 22.5578 15.2257 22.5578C15.2256 22.5579 15.2254 22.5579 15.2252 22.558C15.2247 22.5581 15.2237 22.5584 15.2222 22.5587C15.2193 22.5592 15.2134 22.56 15.204 22.56V23.56C15.4836 23.56 15.7403 23.4588 15.9416 23.2576L15.2344 22.5504Z" fill="white"/>
</svg>
