<svg width="375" height="151" viewBox="0 0 375 151" fill="none" xmlns="http://www.w3.org/2000/svg">
<path d="M94.7402 173.805C4.67546 171.696 -67.0803 133.616 -67.0803 86.9483C-67.0803 38.9281 8.89643 0 102.618 0C163.677 0 217.204 16.5223 247.097 41.317C339.182 42.706 413 81.4784 413 129.105C413 177.61 336.433 216.932 241.982 216.932C179.316 216.932 124.522 199.622 94.7402 173.805Z" fill="#F39696" fill-opacity="0.31"/>
<path d="M100.219 204.662C11.3921 219.675 -66.2975 195.899 -75.1696 150.081C-84.299 102.934 -17.1056 50.303 74.9111 32.5257C134.858 20.944 190.552 27.0127 224.616 45.686C315.289 29.583 395.135 53.6479 404.19 100.408C413.411 148.031 345.713 201.16 252.981 219.075C191.455 230.962 134.367 224.36 100.219 204.662Z" fill="#F39696" fill-opacity="0.31"/>
</svg>
