<svg width="24" height="24" viewBox="0 0 24 24" fill="none" xmlns="http://www.w3.org/2000/svg">
<g clip-path="url(#clip0_3380_702)">
<path d="M22.3502 4.2L18.7502 0.9C18.3002 0.45 17.7002 0.15 16.9502 0H6.6002C3.1502 0 0.450195 2.7 0.450195 6.15V17.85C0.450195 21.3 3.1502 24 6.6002 24H17.4002C20.8502 24 23.5502 21.3 23.5502 17.85V6.9C23.5502 5.85 23.1002 4.8 22.3502 4.2ZM13.9502 2.25H15.6002V3.9H15.4502C15.1502 3.45 14.5502 3.45 13.9502 3.75V2.25ZM21.3002 17.85C21.3002 20.1 19.5002 21.75 17.4002 21.75H6.6002C4.3502 21.75 2.7002 19.95 2.7002 17.85V6.15C2.7002 3.9 4.5002 2.25 6.6002 2.25H11.7002V5.7C11.7002 6.9 13.0502 7.5 13.9502 6.75L14.8502 6L15.9002 6.75C16.8002 7.5 18.0002 6.75 18.0002 5.7V3.15L21.0002 5.85C21.3002 6.15 21.4502 6.45 21.4502 6.9V17.85H21.3002Z" fill="#333333"/>
<path d="M13.95 10.05H7.2C6.6 10.05 6 10.5 6 11.25C6 11.85 6.45 12.3 7.05 12.3H13.95C14.55 12.3 15 11.85 15 11.25C15 10.5 14.55 10.05 13.95 10.05ZM12.45 14.55H7.2C6.6 14.55 6.15 15 6.15 15.6C6.15 16.2 6.6 16.65 7.2 16.65H12.45C13.05 16.65 13.5 16.2 13.5 15.6C13.5 15 13.05 14.55 12.45 14.55Z" fill="#333333"/>
</g>
<defs>
<clipPath id="clip0_3380_702">
<rect width="24" height="24" fill="white"/>
</clipPath>
</defs>
</svg>
