<svg width="24" height="24" viewBox="0 0 24 24" fill="none" xmlns="http://www.w3.org/2000/svg">
<path d="M11.0469 9.68363L9.8683 10.8825C10.4822 12.2449 11.7838 13.7625 13.2939 14.2729L14.3128 13.257C14.3128 13.257 16.7282 13.6785 17.2715 13.9418C17.7422 14.1701 17.8974 14.6764 17.8243 15.3004C17.7452 15.9709 16.8662 17.4499 15.2829 17.466C13.6997 17.4821 11.3675 16.2893 9.69692 14.529C8.02592 12.7691 6.53642 10.5379 6.7753 8.64301C7.0138 6.74888 8.66455 6.40951 9.07742 6.37951C9.4948 6.34838 9.8263 6.47101 10.0775 6.78301C10.4019 7.18501 11.0477 9.68326 11.0477 9.68326H11.0469V9.68363Z" fill="#333333"/>
<circle cx="12" cy="12" r="10" stroke="#333333" stroke-width="2"/>
</svg>
