<svg width="336" height="336" viewBox="0 0 336 336" fill="none" xmlns="http://www.w3.org/2000/svg">
<g clip-path="url(#clip0_3355_510)">
<path fill-rule="evenodd" clip-rule="evenodd" d="M166.544 43.12L172.256 43.232L177.912 43.624L183.456 44.24L188.888 45.08L194.264 46.144L199.584 47.432L204.792 48.944L209.944 50.68L214.928 52.64L219.8 54.768L225.848 57.736L231.616 60.984L237.216 64.512L242.592 68.32L232.736 68.432L231.56 68.768L230.384 69.328L228.536 70.896L227.248 73.08L226.912 74.256L226.8 76.16L226.912 77.504L227.248 78.68L227.808 79.856L229.376 81.704L231.56 82.992L232.736 83.328L234.08 83.44H259.392L262.92 87.416L266.224 91.504L269.416 95.704L272.384 100.128H284.424L285.824 100.24L287.168 100.576L288.344 101.192L289.464 101.976L290.416 102.872L291.2 103.992L291.76 105.224L292.096 106.512L292.264 107.968L291.928 110.656L291.536 111.72L290.64 113.12L289.52 114.352L288.12 115.304L286.608 115.92H275.52L273.896 116.088L272.384 116.48L270.984 117.152L269.752 118.048L268.688 119.112L267.792 120.344L267.12 121.744L266.728 123.256L266.56 127.68L266.728 129.304L267.12 130.816L267.792 132.216L268.688 133.448L269.752 134.512L270.984 135.408L272.384 136.08L273.896 136.472L275.52 136.64H313.544L315.952 137.648L317.016 138.376L318.752 140.28L319.928 142.632L320.32 145.32L320.152 147.448L319.76 148.96L319.088 150.36L318.192 151.592L317.128 152.656L315.896 153.552L314.496 154.224L312.984 154.616L311.36 154.784H291.648L292.096 160.776L292.264 166.88L292.096 172.76L291.704 178.528L291.032 184.184L290.136 189.784L288.904 195.272L287.504 200.704L285.824 206.024L283.92 211.232L281.792 216.328L279.496 221.312L276.92 226.184L274.12 230.944L271.152 235.536L268.016 239.96L264.656 244.272L261.072 248.472L257.376 252.448L253.456 256.256L249.424 259.952L245.168 263.424L240.8 266.784L236.264 269.864L231.616 272.776L226.8 275.52L221.816 278.04L216.776 280.392L211.568 282.464L206.304 284.312L200.872 285.936L195.328 287.392L189.784 288.512L184.128 289.464L178.36 290.08L172.48 290.472L166.544 290.64L160.944 290.528L155.456 290.192L150.08 289.576L144.76 288.792L139.552 287.784L133.056 286.216L126.728 284.312L120.624 282.128L114.632 279.608L108.752 276.808L103.04 273.728L97.608 270.368L92.288 266.784L87.192 262.864L82.32 258.776L77.616 254.408L73.192 249.816L68.992 245L65.072 240.016L61.376 234.808L57.96 229.376L54.824 223.776L52.024 218.008L49.448 212.128L47.208 206.024L41.552 205.912L40.768 205.576L40.04 205.016L39.536 204.288L39.2 203.504L39.032 202.552L39.2 201.544L39.648 200.592L40.32 199.864L41.216 199.36L48.384 199.248L49.56 198.912L50.736 198.352L52.584 196.784L53.872 194.6L54.208 193.424L54.32 192.08L54.208 190.176L53.872 189L53.312 187.824L51.744 185.976L50.736 185.248L49.56 184.688L48.384 184.352L42 184.128H29.624L27.608 183.792L26.712 183.344L25.2 182.112L24.192 180.432L23.912 179.424V177.352L24.64 175.504L25.872 173.992L27.608 172.984L29.624 172.648H40.936L40.824 166.88L40.936 161.392L41.272 155.96L41.888 150.64L42.672 145.432L43.736 140.28L45.304 133.84L47.264 127.624L49.504 121.576L52.024 115.64H31.92L29.792 115.472L27.72 115.08L25.816 114.408L24.024 113.512L22.344 112.392L20.832 111.048L19.488 109.536L18.368 107.912L17.472 106.064L16.8 104.16L16.408 102.144L16.24 99.96L16.352 96.992L16.744 95.032L17.416 93.184L18.256 91.392L19.32 89.768L20.552 88.312L21.952 86.968L23.52 85.848L25.256 84.896L27.048 84.168L28.952 83.72L31.024 83.44H101.92L103.88 83.104L105.56 82.096L106.736 80.64L107.184 79.8L107.52 77.84L107.408 76.832L107.184 75.88L106.176 74.2L104.72 73.024L103.88 72.576L101.92 72.24H85.512L85.904 71.904H77.728L75.824 71.736L74.032 71.232L72.408 70.448L70.896 69.384L69.608 68.152L68.544 66.64L67.76 64.96L67.312 63.224L67.088 61.264L67.312 58.744L67.76 56.952L68.544 55.272L69.608 53.816L70.896 52.528L72.408 51.464L74.032 50.68L75.824 50.232L77.728 50.008H124.992L134.904 47.04L145.208 44.912L155.68 43.568L166.544 43.12Z" fill="#F3F3FA" fill-opacity="0.601594"/>
<path d="M101.808 119.84H97.7201L97.5521 117.768L97.1601 115.864L96.5441 114.072L95.6481 112.336L94.6401 110.768L93.3521 109.312L91.9521 108.08L90.3841 107.016L88.6481 106.176L86.8001 105.504L84.8961 105.112L82.8801 105L80.8081 105.112L78.9041 105.504L77.1121 106.176L75.3761 107.016L73.8081 108.08L72.3521 109.312L71.1201 110.768L70.0561 112.336L69.2161 114.072L68.5441 115.864L68.1521 117.768L68.0401 119.84H65.0161L63.7841 119.952L62.6641 120.288L61.6001 120.848L59.8081 122.472L58.6321 124.656L58.1841 127.232L58.2961 128.576L59.1361 130.984L59.8081 132.048L61.6001 133.672L62.6641 134.176L63.7841 134.512L65.0161 134.68H101.808L103.04 134.512L104.16 134.176L106.176 132.944L107.688 130.984L108.528 128.576L108.64 127.232L108.528 125.888L107.688 123.48L106.176 121.576L104.16 120.288L103.04 119.952L101.808 119.84Z" fill="url(#paint0_linear_3355_510)"/>
<path d="M206.584 77.616H203.672L203.448 75.712L203 73.92L202.216 72.24L201.152 70.784L199.864 69.496L198.352 68.432L196.728 67.648L194.936 67.2L193.032 66.976L191.072 67.2L189.28 67.648L187.656 68.432L186.144 69.496L184.856 70.784L183.848 72.24L183.008 73.92L182.56 75.712L182.392 77.616H180.208L178.528 77.952L177.744 78.344L176.792 79.184L176.008 80.248L175.504 81.536L175.336 82.936L175.504 84.392L176.008 85.624L176.792 86.744L177.744 87.528L179.312 88.2L206.584 88.256L208.32 87.92L209.048 87.528L210.056 86.744L210.84 85.624L211.288 84.392L211.456 82.936L211.288 81.536L210.784 80.248L210.056 79.184L209.048 78.344L207.48 77.728L206.584 77.616Z" fill="url(#paint1_linear_3355_510)"/>
<path fill-rule="evenodd" clip-rule="evenodd" d="M159.32 232.4L181.832 232.792L202.832 233.968L221.76 235.816L230.888 236.992L239.008 238.28L246.288 239.68L251.608 239.848L256.536 240.24L261.184 240.856L265.776 241.752L269.808 242.76L273.336 243.936L275.968 245.056L278.152 246.176L281.512 248.472L282.856 249.872L283.752 251.216L284.312 252.56L284.48 253.96L284.368 255.08L283.416 257.264L282.576 258.384L281.232 259.672L279.496 260.96L277.256 262.248L272.216 264.376L269.136 265.328L262.584 266.784L258.776 267.4L253.288 268.912L246.792 270.368L246.96 272.16L246.792 273.728L246.456 275.296L245.784 276.808L244.832 278.376L243.6 279.944L241.864 281.624L239.792 283.36L237.216 285.04L231.168 288.12L224.056 290.808L219.912 292.04L214.368 293.384L208.32 294.56L201.768 295.568L195.16 296.24L188.216 296.632L180.88 296.8L174.272 296.688L168 296.352L162.008 295.792L155.96 295.008L150.416 294.056L145.208 292.88L140.056 291.536L135.464 290.08L131.376 288.512L128.352 287.112L123.312 284.256L119.336 281.12L117.768 279.496L116.536 277.816L115.696 276.192L106.904 275.408L91.0559 273.616L76.6079 271.32L64.2879 268.632L59.0239 267.176L54.5999 265.664L48.4399 263.088L46.1999 261.856L43.0639 259.448L42.0559 258.272L41.3839 257.208L40.9919 256.144L40.8799 255.08L41.0479 253.96L41.4959 252.784L42.2799 251.608L43.4559 250.376L45.1359 249.032L47.2079 247.744L49.8399 246.4L53.0879 245.056L57.0639 243.656L62.2719 242.088L68.3759 240.52L75.5439 239.064L90.7199 236.6L99.5679 235.48L117.768 233.856L137.872 232.792L159.32 232.4Z" fill="#E7EAF0"/>
<path d="M259.448 224.336L259.84 225.904L259.728 226.8L259.336 227.64L258.72 228.256L257.936 228.704L250.544 228.872L250.6 237.216L250.88 241.92H245.84L246.008 238.392L246.064 229.488L245.392 229.88L244.72 229.992L243.712 229.712L242.984 228.928L239.008 228.76L237.944 228.312L237.104 227.584L236.656 226.968L236.432 226.296L236.376 225.12L237.776 221.368L238.728 220.192L244.216 210.112L245.784 208.04L247.24 207.312L248.136 207.2L249.368 207.368L250.432 207.872L251.272 208.6L256.312 218.12L257.712 218.96L258.664 220.304L259.056 221.984L258.888 223.16L259.448 224.336Z" fill="url(#paint2_linear_3355_510)"/>
<path d="M281.848 235.536L282.24 237.104L282.128 238L281.736 238.84L281.12 239.456L280.336 239.904L272.944 240.072L273 248.416L273.28 253.12H268.24L268.408 249.592L268.464 240.688L267.792 241.08L267.12 241.192L266.112 240.912L265.384 240.128L261.408 239.96L260.344 239.512L259.504 238.784L259.056 238.168L258.832 237.496L258.776 236.32L260.176 232.568L261.128 231.392L266.616 221.312L268.184 219.24L269.64 218.512L270.536 218.4L271.768 218.568L272.832 219.072L273.672 219.8L278.712 229.32L280.112 230.16L281.064 231.504L281.456 233.184L281.288 234.36L281.848 235.536Z" fill="url(#paint3_linear_3355_510)"/>
<path d="M83.9999 231.504L84.5599 233.744L84.2239 235.424L83.8319 236.208L82.9919 237.104L81.9279 237.72L71.4559 237.944L71.5679 249.76L71.9599 256.48H64.9039L65.1279 251.496L65.1839 238.784L64.6239 239.232L63.3359 239.568L61.8799 239.176L60.8719 238.056L55.3279 237.776L53.3679 236.88L52.5839 236.152L52.0239 235.256L51.6319 234.248L51.5759 232.624L52.9199 229.264L53.5359 227.248L54.8799 225.68L62.6079 211.4L63.6719 209.776L64.8479 208.432L65.7439 207.76L66.8639 207.368L68.1519 207.2L70.3359 207.592L71.2879 208.152L72.8559 209.664L79.5759 222.712L80.6399 223.216L81.5359 223.888L82.3199 224.784L82.9359 225.792L83.3279 226.912L83.4399 228.144L83.1599 229.824L83.9999 231.504Z" fill="url(#paint4_linear_3355_510)"/>
<path d="M188.16 261.016L187.992 261.632L187.544 262.304L186.648 262.976L184.968 263.76L182.504 264.6L176.344 265.664L168.84 266.056L161.336 265.664L155.176 264.6L152.712 263.76L151.032 262.976L150.136 262.304L149.688 261.632L149.52 261.016L149.688 260.4L150.136 259.728L151.032 259.056L152.712 258.272L155.176 257.432L161.336 256.368L168.84 255.976L176.344 256.368L182.504 257.432L184.968 258.272L186.648 259.056L187.544 259.728L187.992 260.4L188.16 261.016Z" fill="#D1D6E2"/>
<path fill-rule="evenodd" clip-rule="evenodd" d="M120.96 147.28H148.96L153.608 154.672L192.584 154.56L195.048 154.728L197.4 155.232L199.584 155.96L201.656 157.024L203.56 158.312L205.296 159.824L206.808 161.504L208.096 163.408L209.16 165.48L209.888 167.664L210.392 170.016L210.56 172.48V229.04H120.96V147.28Z" fill="#D9DFE8"/>
<path fill-rule="evenodd" clip-rule="evenodd" d="M130.48 165.2H203.28V245.84H130.48V165.2Z" fill="#A2ABB9"/>
<path fill-rule="evenodd" clip-rule="evenodd" d="M128.8 173.04H204.96V244.16H128.8V173.04Z" fill="white"/>
<path fill-rule="evenodd" clip-rule="evenodd" d="M128.24 178.08H207.2V243.6H128.24V178.08Z" fill="#C8CEDE"/>
<path d="M113.68 185.36H220.08L210.392 245.84H123.368L113.68 185.36Z" fill="url(#paint5_linear_3355_510)"/>
<path fill-rule="evenodd" clip-rule="evenodd" d="M177.24 211.68L178.024 211.848L178.64 212.24L179.032 212.856L179.2 213.64L179.032 214.424L178.64 215.04L178.024 215.432L177.24 215.6L176.456 215.432L175.84 215.04L175.448 214.424L175.28 213.64L175.448 212.856L175.84 212.24L176.456 211.848L177.24 211.68Z" fill="#D9DFE8"/>
<path fill-rule="evenodd" clip-rule="evenodd" d="M185.08 211.68H198.52L199.304 211.848L199.92 212.24L200.312 212.856L200.48 213.64L200.312 214.424L199.92 215.04L199.304 215.432L198.52 215.6H185.08L184.296 215.432L183.68 215.04L183.288 214.424L183.12 213.64L183.288 212.856L183.68 212.24L184.296 211.848L185.08 211.68Z" fill="#D9DFE8"/>
<path fill-rule="evenodd" clip-rule="evenodd" d="M176.68 220.08H197.96L198.744 220.248L199.36 220.64L199.752 221.256L199.92 222.04L199.752 222.824L199.36 223.44L198.744 223.832L197.96 224H176.68L175.896 223.832L175.28 223.44L174.888 222.824L174.72 222.04L174.888 221.256L175.28 220.64L175.896 220.248L176.68 220.08Z" fill="#D9DFE8"/>
<path fill-rule="evenodd" clip-rule="evenodd" d="M169.68 143.36L169.512 144.872L169.176 146.272L168.56 147.616L167.72 148.792L166.712 149.8L165.536 150.64L164.192 151.256L162.792 151.592L161.28 151.76L159.768 151.592L158.368 151.256L157.024 150.64L155.848 149.8L154.84 148.792L154 147.616L153.384 146.272L153.048 144.872L152.88 143.36L153.048 141.848L153.384 140.448L154 139.104L154.84 137.928L155.848 136.92L157.024 136.08L158.368 135.464L159.768 135.128L161.28 134.96L162.792 135.128L164.192 135.464L165.536 136.08L166.712 136.92L167.72 137.928L168.56 139.104L169.176 140.448L169.512 141.848L169.68 143.36Z" fill="#D9DFE8"/>
<path fill-rule="evenodd" clip-rule="evenodd" d="M161.28 146.16L157.976 147.896L158.592 144.2L155.96 141.624L159.656 141.12L161.28 137.76L162.904 141.12L166.6 141.624L163.968 144.2L164.584 147.896L161.28 146.16Z" fill="white"/>
<path d="M209.44 123.088L204.344 129.528L189.504 109.536L219.408 110.88L214.928 116.872L193.536 111.384L212.8 119.728L216.216 125.776L209.44 123.088Z" fill="url(#paint6_linear_3355_510)"/>
<path d="M221.76 127.68L226.408 130.872L230.496 134.064L234.08 137.256L237.16 140.392L239.848 143.528L242.088 146.608L243.936 149.744L245.448 152.88L246.624 156.016L247.52 159.152L248.024 162.344L248.304 165.592L248.192 168.952L247.8 172.312L247.072 175.84L246.008 179.48L244.552 183.288L242.704 187.208L240.408 191.296L237.608 195.552L234.304 200.032L230.44 204.736" stroke="#D1D6E2" stroke-linecap="round" stroke-dasharray="4 4"/>
</g>
<defs>
<linearGradient id="paint0_linear_3355_510" x1="131.137" y1="124.859" x2="73.0781" y2="125.216" gradientUnits="userSpaceOnUse">
<stop stop-color="#E0E5EF" stop-opacity="0"/>
<stop offset="1" stop-color="#E0E5EF"/>
</linearGradient>
<linearGradient id="paint1_linear_3355_510" x1="227.561" y1="81.2143" x2="185.998" y2="81.4692" gradientUnits="userSpaceOnUse">
<stop stop-color="#E0E5EF" stop-opacity="0"/>
<stop offset="1" stop-color="#E0E5EF"/>
</linearGradient>
<linearGradient id="paint2_linear_3355_510" x1="258.293" y1="241.503" x2="245.899" y2="241.694" gradientUnits="userSpaceOnUse">
<stop stop-color="#E0E5EF" stop-opacity="0"/>
<stop offset="1" stop-color="#E0E5EF"/>
</linearGradient>
<linearGradient id="paint3_linear_3355_510" x1="280.693" y1="252.703" x2="268.299" y2="252.894" gradientUnits="userSpaceOnUse">
<stop stop-color="#E0E5EF" stop-opacity="0"/>
<stop offset="1" stop-color="#E0E5EF"/>
</linearGradient>
<linearGradient id="paint4_linear_3355_510" x1="82.0921" y1="255.889" x2="65.0258" y2="256.154" gradientUnits="userSpaceOnUse">
<stop stop-color="#E0E5EF" stop-opacity="0"/>
<stop offset="1" stop-color="#E0E5EF"/>
</linearGradient>
<linearGradient id="paint5_linear_3355_510" x1="166.88" y1="245.84" x2="166.88" y2="169.11" gradientUnits="userSpaceOnUse">
<stop stop-color="#A2ABB9"/>
<stop offset="1" stop-color="#E7EAF0"/>
</linearGradient>
<linearGradient id="paint6_linear_3355_510" x1="204.456" y1="129.528" x2="197.911" y2="102.036" gradientUnits="userSpaceOnUse">
<stop stop-color="#A2ABB9"/>
<stop offset="1" stop-color="#E7EAF0"/>
</linearGradient>
<clipPath id="clip0_3355_510">
<rect width="336" height="336" fill="white"/>
</clipPath>
</defs>
</svg>
