<svg width="22" height="24" viewBox="0 0 22 24" fill="none" xmlns="http://www.w3.org/2000/svg">
<path d="M11.0502 0.0799866C11.586 0.0805225 12.1041 0.27101 12.5126 0.617587L12.6391 0.718387L12.8111 0.846387L13.0318 1.00079C13.4359 1.27439 13.9007 1.54719 14.4183 1.79919C15.8703 2.50639 17.4631 2.92719 19.1487 2.92719C19.7494 2.92846 20.3252 3.16778 20.7498 3.59273C21.1745 4.01769 21.4134 4.59362 21.4142 5.19439V12.8368C21.4142 14.6928 20.1343 17.3648 18.2374 19.6584C17.2551 20.8472 16.1639 21.8528 15.0695 22.572C13.7231 23.456 12.3711 23.92 11.055 23.92C9.77905 23.92 8.45265 23.464 7.11105 22.5952C6.00545 21.8792 4.89825 20.8784 3.90065 19.7008C1.89265 17.3312 0.585449 14.6032 0.585449 12.6032V5.15359C0.585449 4.55359 0.826249 3.97439 1.24385 3.55679C1.60468 3.19752 2.07575 2.96988 2.58145 2.91039L2.71265 2.89119L2.81905 2.88639H2.90545C3.90545 2.87839 5.16145 2.74799 6.42545 2.41679C7.83825 2.04719 8.82385 1.51119 9.28865 0.923987L9.39105 0.805587C9.60205 0.578391 9.85733 0.396804 10.1412 0.272014C10.425 0.147223 10.7314 0.0818721 11.0415 0.0799866H11.0502ZM11.067 2.53599L11.027 2.58639C10.1814 3.55279 8.80625 4.27439 7.03345 4.73839C5.55185 5.12639 4.10545 5.27759 2.91665 5.28639L2.98545 5.28479V12.6032C2.98545 13.8872 3.97985 16.008 5.54865 17.9288L5.73265 18.1496C6.58385 19.1552 7.51665 19.9984 8.41585 20.5808C9.39345 21.2136 10.2838 21.52 11.055 21.52C11.8654 21.52 12.7726 21.2088 13.751 20.5656C14.6358 19.9848 15.5511 19.1416 16.3878 18.1288C17.9622 16.2248 19.0143 14.0296 19.0143 12.8368V5.32479L18.7607 5.32079C16.9566 5.26479 15.2591 4.82479 13.6991 4.11359L13.3671 3.95679C12.463 3.51679 11.7622 3.06959 11.2494 2.67919L11.067 2.53599ZM10.9998 6.89839C11.8257 6.89827 12.6252 7.18922 13.2579 7.72009C13.8905 8.25097 14.3158 8.98781 14.4591 9.80116C14.6023 10.6145 14.4544 11.4523 14.0412 12.1674C13.628 12.8825 12.9761 13.4291 12.1999 13.7112V15.9016C12.1997 16.2098 12.081 16.5061 11.8683 16.7291C11.6557 16.9521 11.3653 17.0848 11.0575 17.0996C10.7497 17.1144 10.448 17.0102 10.2149 16.8086C9.98179 16.6071 9.83519 16.3235 9.80545 16.0168L9.79985 15.9016V13.7112C9.02456 13.4283 8.37362 12.8815 7.9612 12.1667C7.54877 11.4518 7.4012 10.6146 7.54436 9.80182C7.68752 8.98905 8.11228 8.25264 8.74412 7.72173C9.37597 7.19083 10.1746 6.89934 10.9998 6.89839ZM10.9998 9.29839C10.8514 9.2944 10.7036 9.32021 10.5652 9.37428C10.4269 9.42835 10.3008 9.50959 10.1943 9.61321C10.0879 9.71683 10.0033 9.84071 9.94555 9.97756C9.88779 10.1144 9.85803 10.2614 9.85803 10.41C9.85803 10.5585 9.88779 10.7056 9.94555 10.8424C10.0033 10.9793 10.0879 11.1031 10.1943 11.2068C10.3008 11.3104 10.4269 11.3916 10.5652 11.4457C10.7036 11.4998 10.8514 11.5256 10.9998 11.5216C11.2895 11.5138 11.5647 11.3933 11.7668 11.1857C11.9689 10.9781 12.082 10.6997 12.082 10.41C12.082 10.1202 11.9689 9.84192 11.7668 9.6343C11.5647 9.42668 11.2895 9.30616 10.9998 9.29839Z" fill="#333333"/>
</svg>
