<svg width="24" height="24" viewBox="0 0 24 24" fill="none" xmlns="http://www.w3.org/2000/svg">
<path d="M9.73358 12C9.73358 12.2976 9.7922 12.5923 9.9061 12.8673C10.02 13.1423 10.1869 13.3921 10.3974 13.6026C10.6079 13.813 10.8577 13.98 11.1327 14.0939C11.4076 14.2078 11.7024 14.2664 12 14.2664C12.2976 14.2664 12.5923 14.2078 12.8673 14.0939C13.1423 13.98 13.3921 13.813 13.6026 13.6026C13.813 13.3921 13.98 13.1423 14.0939 12.8673C14.2078 12.5923 14.2664 12.2976 14.2664 12C14.2664 11.3989 14.0276 10.8224 13.6026 10.3974C13.1775 9.97238 12.6011 9.7336 12 9.7336C11.3989 9.7336 10.8224 9.97238 10.3974 10.3974C9.97236 10.8224 9.73358 11.3989 9.73358 12Z" fill="#333333"/>
<path d="M17.9601 12C17.9601 12.2976 18.0188 12.5923 18.1327 12.8673C18.2466 13.1423 18.4135 13.3921 18.624 13.6026C18.8344 13.813 19.0843 13.98 19.3592 14.0939C19.6342 14.2078 19.9289 14.2664 20.2266 14.2664C20.5242 14.2664 20.8189 14.2078 21.0939 14.0939C21.3688 13.98 21.6187 13.813 21.8291 13.6026C22.0396 13.3921 22.2065 13.1423 22.3204 12.8673C22.4343 12.5923 22.493 12.2976 22.493 12C22.493 11.7024 22.4343 11.4077 22.3204 11.1327C22.2065 10.8577 22.0396 10.6079 21.8291 10.3974C21.6187 10.187 21.3688 10.02 21.0939 9.90612C20.8189 9.79222 20.5242 9.7336 20.2266 9.7336C19.9289 9.7336 19.6342 9.79222 19.3592 9.90612C19.0843 10.02 18.8344 10.187 18.624 10.3974C18.4135 10.6079 18.2466 10.8577 18.1327 11.1327C18.0188 11.4077 17.9601 11.7024 17.9601 12Z" fill="#333333"/>
<path d="M1.50702 12C1.50702 12.6011 1.7458 13.1776 2.17083 13.6026C2.59587 14.0276 3.17234 14.2664 3.77343 14.2664C4.37451 14.2664 4.95098 14.0276 5.37602 13.6026C5.80105 13.1776 6.03983 12.6011 6.03983 12C6.03983 11.3989 5.80105 10.8224 5.37602 10.3974C4.95098 9.97238 4.37451 9.7336 3.77343 9.7336C3.17234 9.7336 2.59587 9.97238 2.17083 10.3974C1.7458 10.8224 1.50702 11.3989 1.50702 12Z" fill="#333333"/>
</svg>
