<svg width="20" height="20" viewBox="0 0 20 20" fill="none" xmlns="http://www.w3.org/2000/svg">
<g clip-path="url(#clip0_3533_870)">
<path d="M18.0681 3.06818H13.1965C12.959 1.33295 11.6158 0 9.99993 0C8.38402 0 7.04084 1.33295 6.80334 3.06818H1.93175C1.73585 3.06818 1.54798 3.146 1.40946 3.28452C1.27094 3.42304 1.19312 3.61092 1.19312 3.80682C1.19312 4.00272 1.27094 4.19059 1.40946 4.32911C1.54798 4.46763 1.73585 4.54545 1.93175 4.54545H18.0681C18.264 4.54545 18.4519 4.46763 18.5904 4.32911C18.7289 4.19059 18.8068 4.00272 18.8068 3.80682C18.8068 3.61092 18.7289 3.42304 18.5904 3.28452C18.4519 3.146 18.264 3.06818 18.0681 3.06818ZM8.30448 3.06818C8.50448 2.15341 9.18743 1.47727 9.99993 1.47727C10.8124 1.47727 11.4954 2.15341 11.6954 3.06818H8.30334H8.30448ZM16.1795 6.27841C15.9836 6.27841 15.7957 6.35623 15.6572 6.49475C15.5187 6.63327 15.4408 6.82115 15.4408 7.01705V17.5C15.4408 18.0636 14.9818 18.5227 14.4181 18.5227H5.58175C5.01811 18.5227 4.55902 18.0636 4.55902 17.5V7.01705C4.55902 6.82115 4.4812 6.63327 4.34268 6.49475C4.20416 6.35623 4.01629 6.27841 3.82039 6.27841C3.62449 6.27841 3.43661 6.35623 3.29809 6.49475C3.15957 6.63327 3.08175 6.82115 3.08175 7.01705V17.5C3.08175 18.8784 4.20334 20 5.58175 20H14.417C15.7954 20 16.917 18.8784 16.917 17.5V7.01705C16.917 6.82115 16.8392 6.63327 16.7006 6.49475C16.5621 6.35623 16.3742 6.27841 16.1783 6.27841H16.1795Z" fill="#343957" stroke="#343957" stroke-width="0.5"/>
<path d="M8.4658 15.3034V8.46591C8.46581 8.36891 8.44672 8.27284 8.40961 8.18321C8.37249 8.09358 8.31809 8.01214 8.2495 7.94354C8.18091 7.87494 8.09948 7.82052 8.00985 7.78339C7.92023 7.74627 7.82417 7.72716 7.72716 7.72716C7.63015 7.72716 7.53409 7.74627 7.44447 7.78339C7.35485 7.82052 7.27341 7.87494 7.20482 7.94354C7.13623 8.01214 7.08183 8.09358 7.04472 8.18321C7.0076 8.27284 6.98851 8.36891 6.98853 8.46591V15.3034C6.98851 15.4004 7.0076 15.4965 7.04472 15.5861C7.08183 15.6757 7.13623 15.7572 7.20482 15.8258C7.27341 15.8944 7.35485 15.9488 7.44447 15.9859C7.53409 16.0231 7.63015 16.0422 7.72716 16.0422C7.82417 16.0422 7.92023 16.0231 8.00985 15.9859C8.09948 15.9488 8.18091 15.8944 8.2495 15.8258C8.31809 15.7572 8.37249 15.6757 8.40961 15.5861C8.44672 15.4965 8.46581 15.4004 8.4658 15.3034ZM13.0113 15.3034V8.46591C13.0113 8.36891 12.9922 8.27284 12.9551 8.18321C12.9179 8.09358 12.8635 8.01214 12.795 7.94354C12.7264 7.87494 12.6449 7.82052 12.5553 7.78339C12.4657 7.74627 12.3696 7.72716 12.2726 7.72716C12.1756 7.72716 12.0795 7.74627 11.9899 7.78339C11.9003 7.82052 11.8189 7.87494 11.7503 7.94354C11.6817 8.01214 11.6273 8.09358 11.5902 8.18321C11.5531 8.27284 11.534 8.36891 11.534 8.46591V15.3034C11.534 15.4004 11.5531 15.4965 11.5902 15.5861C11.6273 15.6757 11.6817 15.7572 11.7503 15.8258C11.8189 15.8944 11.9003 15.9488 11.9899 15.9859C12.0795 16.0231 12.1756 16.0422 12.2726 16.0422C12.3696 16.0422 12.4657 16.0231 12.5553 15.9859C12.6449 15.9488 12.7264 15.8944 12.795 15.8258C12.8635 15.7572 12.9179 15.6757 12.9551 15.5861C12.9922 15.4965 13.0113 15.4004 13.0113 15.3034Z" fill="#343957" stroke="#343957" stroke-width="0.5"/>
</g>
<defs>
<clipPath id="clip0_3533_870">
<rect width="20" height="20" fill="white"/>
</clipPath>
</defs>
</svg>
