<svg width="37" height="36" viewBox="0 0 37 36" fill="none" xmlns="http://www.w3.org/2000/svg">
<path d="M14.9 3.60001H22.1C29.3 3.60001 32.9 7.20001 32.9 14.4V21.6C32.9 28.8 29.3 32.4 22.1 32.4H14.9C7.69998 32.4 4.09998 28.8 4.09998 21.6V14.4C4.09998 7.20001 7.69998 3.60001 14.9 3.60001Z" fill="#45FFA6"/>
<path d="M32.7506 12.6H29.3C26.3176 12.6 23.9 10.1824 23.9 7.19999V3.74939C28.4225 4.50809 31.9919 8.07749 32.7506 12.6Z" fill="#1EB46C"/>
<path d="M18.148 23.06C17.996 23.06 17.868 23.008 17.764 22.904C17.66 22.8 17.608 22.672 17.608 22.52V15.644H15.16C15.016 15.644 14.896 15.596 14.8 15.5C14.704 15.404 14.656 15.284 14.656 15.14C14.656 14.996 14.704 14.876 14.8 14.78C14.896 14.676 15.016 14.624 15.16 14.624H21.136C21.28 14.624 21.4 14.676 21.496 14.78C21.6 14.876 21.652 14.996 21.652 15.14C21.652 15.284 21.6 15.404 21.496 15.5C21.4 15.596 21.28 15.644 21.136 15.644H18.7V22.52C18.7 22.672 18.644 22.8 18.532 22.904C18.428 23.008 18.3 23.06 18.148 23.06Z" fill="white"/>
<path d="M17.764 22.904L17.4104 23.2576L17.764 22.904ZM17.608 15.644H18.108V15.144H17.608V15.644ZM14.8 15.5L14.4464 15.8536L14.4464 15.8536L14.8 15.5ZM14.8 14.78L15.1536 15.1336L15.1606 15.1265L15.1674 15.1191L14.8 14.78ZM21.496 14.78L21.1286 15.1191L21.1422 15.1338L21.1569 15.1474L21.496 14.78ZM21.496 15.5L21.1569 15.1326L21.1495 15.1394L21.1424 15.1464L21.496 15.5ZM18.7 15.644V15.144H18.2V15.644H18.7ZM18.532 22.904L18.1918 22.5376L18.185 22.5439L18.1784 22.5504L18.532 22.904ZM18.148 22.56C18.1386 22.56 18.1327 22.5592 18.1298 22.5587C18.1283 22.5584 18.1273 22.5581 18.1269 22.558C18.1266 22.5579 18.1264 22.5579 18.1263 22.5578C18.1262 22.5578 18.1262 22.5578 18.1262 22.5578C18.1262 22.5578 18.1262 22.5578 18.1262 22.5578C18.1262 22.5578 18.1262 22.5578 18.1262 22.5578C18.1262 22.5578 18.126 22.5577 18.1255 22.5573C18.1246 22.5567 18.1219 22.5548 18.1176 22.5504L17.4104 23.2576C17.6117 23.4588 17.8684 23.56 18.148 23.56V22.56ZM18.1176 22.5504C18.1132 22.5461 18.1113 22.5434 18.1107 22.5425C18.1103 22.542 18.1102 22.5418 18.1102 22.5418C18.1102 22.5418 18.1102 22.5418 18.1102 22.5418C18.1102 22.5418 18.1102 22.5418 18.1102 22.5418C18.1102 22.5418 18.1102 22.5418 18.1102 22.5417C18.1101 22.5416 18.1101 22.5414 18.11 22.5412C18.1099 22.5407 18.1096 22.5397 18.1093 22.5382C18.1088 22.5353 18.108 22.5294 18.108 22.52H17.108C17.108 22.7996 17.2092 23.0563 17.4104 23.2576L18.1176 22.5504ZM18.108 22.52V15.644H17.108V22.52H18.108ZM17.608 15.144H15.16V16.144H17.608V15.144ZM15.16 15.144C15.1518 15.144 15.1474 15.1433 15.1459 15.1431C15.1446 15.1428 15.1455 15.1429 15.1477 15.1438C15.15 15.1447 15.1522 15.1459 15.1538 15.147C15.1555 15.1481 15.1553 15.1482 15.1536 15.1464L14.4464 15.8536C14.6423 16.0495 14.8923 16.144 15.16 16.144V15.144ZM15.1536 15.1464C15.1518 15.1447 15.1519 15.1445 15.153 15.1462C15.1541 15.1478 15.1553 15.15 15.1562 15.1523C15.1571 15.1545 15.1572 15.1554 15.1569 15.1541C15.1567 15.1526 15.156 15.1482 15.156 15.14H14.156C14.156 15.4077 14.2505 15.6577 14.4464 15.8536L15.1536 15.1464ZM15.156 15.14C15.156 15.1318 15.1567 15.1274 15.1569 15.1259C15.1572 15.1246 15.1571 15.1255 15.1562 15.1277C15.1553 15.13 15.1541 15.1322 15.153 15.1338C15.1519 15.1355 15.1518 15.1353 15.1536 15.1336L14.4464 14.4264C14.2505 14.6223 14.156 14.8723 14.156 15.14H15.156ZM15.1674 15.1191C15.1702 15.1161 15.1709 15.1159 15.1692 15.1171C15.1675 15.1183 15.1646 15.1201 15.1608 15.1218C15.157 15.1234 15.1542 15.1241 15.1531 15.1243C15.1522 15.1245 15.1542 15.124 15.16 15.124V14.124C14.8792 14.124 14.6251 14.2323 14.4326 14.4409L15.1674 15.1191ZM15.16 15.124H21.136V14.124H15.16V15.124ZM21.136 15.124C21.1418 15.124 21.1438 15.1245 21.1429 15.1243C21.1418 15.1241 21.139 15.1234 21.1352 15.1218C21.1314 15.1201 21.1285 15.1183 21.1268 15.1171C21.1251 15.1159 21.1258 15.1161 21.1286 15.1191L21.8634 14.4409C21.6709 14.2323 21.4168 14.124 21.136 14.124V15.124ZM21.1569 15.1474C21.1599 15.1502 21.1601 15.1509 21.1589 15.1492C21.1577 15.1475 21.1559 15.1446 21.1542 15.1408C21.1526 15.137 21.1519 15.1342 21.1517 15.1331C21.1515 15.1322 21.152 15.1342 21.152 15.14H22.152C22.152 14.8592 22.0437 14.6051 21.8351 14.4126L21.1569 15.1474ZM21.152 15.14C21.152 15.1458 21.1515 15.1478 21.1517 15.1469C21.1519 15.1458 21.1526 15.1429 21.1542 15.1392C21.1559 15.1354 21.1577 15.1325 21.1589 15.1308C21.1601 15.1291 21.1599 15.1298 21.1569 15.1326L21.8351 15.8674C22.0437 15.6749 22.152 15.4208 22.152 15.14H21.152ZM21.1424 15.1464C21.1407 15.1482 21.1405 15.1481 21.1422 15.147C21.1438 15.1459 21.146 15.1447 21.1483 15.1438C21.1505 15.1429 21.1514 15.1428 21.1501 15.1431C21.1486 15.1433 21.1442 15.144 21.136 15.144V16.144C21.4037 16.144 21.6537 16.0495 21.8496 15.8536L21.1424 15.1464ZM21.136 15.144H18.7V16.144H21.136V15.144ZM18.2 15.644V22.52H19.2V15.644H18.2ZM18.2 22.52C18.2 22.5272 18.1994 22.5307 18.1992 22.5314C18.1991 22.532 18.1992 22.5312 18.1999 22.5296C18.2006 22.528 18.2011 22.5275 18.2005 22.5282C18.1999 22.5291 18.1974 22.5323 18.1918 22.5376L18.8722 23.2704C19.0855 23.0724 19.2 22.8119 19.2 22.52H18.2ZM18.1784 22.5504C18.1741 22.5548 18.1714 22.5567 18.1705 22.5573C18.17 22.5577 18.1698 22.5578 18.1698 22.5578C18.1698 22.5578 18.1698 22.5578 18.1698 22.5578C18.1698 22.5578 18.1698 22.5578 18.1698 22.5578C18.1698 22.5578 18.1698 22.5578 18.1697 22.5578C18.1696 22.5579 18.1694 22.5579 18.1692 22.558C18.1687 22.5581 18.1677 22.5584 18.1662 22.5587C18.1633 22.5592 18.1574 22.56 18.148 22.56V23.56C18.4276 23.56 18.6843 23.4588 18.8856 23.2576L18.1784 22.5504Z" fill="white"/>
</svg>
