<svg width="36" height="36" viewBox="0 0 36 36" fill="none" xmlns="http://www.w3.org/2000/svg">
<path d="M14.4 3.60001H21.6C28.8 3.60001 32.4 7.20001 32.4 14.4V21.6C32.4 28.8 28.8 32.4 21.6 32.4H14.4C7.19998 32.4 3.59998 28.8 3.59998 21.6V14.4C3.59998 7.20001 7.19998 3.60001 14.4 3.60001Z" fill="#E03030"/>
<path d="M32.2506 12.6H28.8C25.8176 12.6 23.4 10.1824 23.4 7.20001V3.7494C27.9225 4.5081 31.4919 8.0775 32.2506 12.6Z" fill="#7B3B3B"/>
<path d="M15.704 23.06C15.552 23.06 15.424 23.008 15.32 22.904C15.216 22.8 15.164 22.672 15.164 22.52V15.176C15.164 15.024 15.216 14.896 15.32 14.792C15.424 14.68 15.552 14.624 15.704 14.624H18.44C19.2 14.624 19.82 14.752 20.3 15.008C20.78 15.264 21.124 15.592 21.332 15.992C21.54 16.392 21.644 16.824 21.644 17.288C21.644 17.752 21.54 18.184 21.332 18.584C21.124 18.984 20.78 19.312 20.3 19.568C19.82 19.824 19.2 19.952 18.44 19.952H16.256V22.52C16.256 22.672 16.2 22.8 16.088 22.904C15.984 23.008 15.856 23.06 15.704 23.06ZM18.332 18.92C19.148 18.92 19.72 18.764 20.048 18.452C20.384 18.14 20.552 17.752 20.552 17.288C20.552 16.824 20.384 16.436 20.048 16.124C19.72 15.812 19.148 15.656 18.332 15.656H16.256V18.92H18.332Z" fill="white"/>
<path d="M15.32 22.904L15.6736 22.5504H15.6736L15.32 22.904ZM15.32 14.792L15.6736 15.1456L15.6801 15.139L15.6864 15.1322L15.32 14.792ZM21.332 15.992L20.8884 16.2227L21.332 15.992ZM21.332 18.584L20.8884 18.3533L20.8884 18.3533L21.332 18.584ZM16.256 19.952V19.452H15.756V19.952H16.256ZM16.088 22.904L15.7478 22.5376L15.741 22.5439L15.7344 22.5504L16.088 22.904ZM20.048 18.452L19.7077 18.0856L19.7034 18.0897L20.048 18.452ZM20.048 16.124L19.7034 16.4863L19.7078 16.4904L20.048 16.124ZM16.256 15.656V15.156H15.756V15.656H16.256ZM16.256 18.92H15.756V19.42H16.256V18.92ZM15.704 22.56C15.6946 22.56 15.6887 22.5592 15.6858 22.5587C15.6843 22.5584 15.6833 22.5581 15.6828 22.558C15.6826 22.5579 15.6824 22.5579 15.6823 22.5578C15.6822 22.5578 15.6822 22.5578 15.6822 22.5578C15.6822 22.5578 15.6822 22.5578 15.6822 22.5578C15.6822 22.5578 15.6822 22.5578 15.6822 22.5578C15.6822 22.5578 15.682 22.5577 15.6815 22.5573C15.6806 22.5567 15.6779 22.5548 15.6736 22.5504L14.9664 23.2576C15.1677 23.4588 15.4244 23.56 15.704 23.56V22.56ZM15.6736 22.5504C15.6692 22.5461 15.6673 22.5434 15.6667 22.5425C15.6663 22.542 15.6662 22.5418 15.6662 22.5418C15.6662 22.5418 15.6662 22.5418 15.6662 22.5418C15.6662 22.5418 15.6662 22.5418 15.6662 22.5418C15.6662 22.5418 15.6662 22.5418 15.6662 22.5417C15.6661 22.5416 15.6661 22.5414 15.666 22.5412C15.6659 22.5407 15.6656 22.5397 15.6653 22.5382C15.6648 22.5353 15.664 22.5294 15.664 22.52H14.664C14.664 22.7996 14.7652 23.0563 14.9664 23.2576L15.6736 22.5504ZM15.664 22.52V15.176H14.664V22.52H15.664ZM15.664 15.176C15.664 15.1666 15.6648 15.1607 15.6653 15.1578C15.6656 15.1563 15.6659 15.1553 15.666 15.1548C15.6661 15.1546 15.6661 15.1544 15.6662 15.1543C15.6662 15.1542 15.6662 15.1542 15.6662 15.1542C15.6662 15.1542 15.6662 15.1542 15.6662 15.1542C15.6662 15.1542 15.6662 15.1542 15.6662 15.1542C15.6662 15.1542 15.6663 15.154 15.6667 15.1535C15.6673 15.1526 15.6692 15.1499 15.6736 15.1456L14.9664 14.4384C14.7652 14.6397 14.664 14.8964 14.664 15.176H15.664ZM15.6864 15.1322C15.6917 15.1266 15.6949 15.1241 15.6958 15.1235C15.6965 15.1229 15.696 15.1234 15.6944 15.1241C15.6928 15.1248 15.692 15.1249 15.6926 15.1248C15.6933 15.1246 15.6968 15.124 15.704 15.124V14.124C15.4121 14.124 15.1516 14.2385 14.9536 14.4518L15.6864 15.1322ZM15.704 15.124H18.44V14.124H15.704V15.124ZM18.44 15.124C19.1487 15.124 19.6801 15.2441 20.0647 15.4492L20.5353 14.5668C19.9599 14.2599 19.2513 14.124 18.44 14.124V15.124ZM20.0647 15.4492C20.4743 15.6676 20.7359 15.9294 20.8884 16.2227L21.7756 15.7613C21.5121 15.2546 21.0857 14.8604 20.5353 14.5668L20.0647 15.4492ZM20.8884 16.2227C21.0582 16.5493 21.144 16.9019 21.144 17.288H22.144C22.144 16.7461 22.0218 16.2347 21.7756 15.7613L20.8884 16.2227ZM21.144 17.288C21.144 17.6741 21.0582 18.0267 20.8884 18.3533L21.7756 18.8147C22.0218 18.3413 22.144 17.8299 22.144 17.288H21.144ZM20.8884 18.3533C20.7359 18.6466 20.4743 18.9084 20.0647 19.1268L20.5353 20.0092C21.0857 19.7156 21.5121 19.3214 21.7756 18.8147L20.8884 18.3533ZM20.0647 19.1268C19.6801 19.3319 19.1487 19.452 18.44 19.452V20.452C19.2513 20.452 19.9599 20.3161 20.5353 20.0092L20.0647 19.1268ZM18.44 19.452H16.256V20.452H18.44V19.452ZM15.756 19.952V22.52H16.756V19.952H15.756ZM15.756 22.52C15.756 22.5272 15.7554 22.5307 15.7552 22.5314C15.7551 22.532 15.7552 22.5312 15.7559 22.5296C15.7566 22.528 15.7571 22.5275 15.7565 22.5282C15.7559 22.5291 15.7534 22.5323 15.7478 22.5376L16.4282 23.2704C16.6415 23.0724 16.756 22.8119 16.756 22.52H15.756ZM15.7344 22.5504C15.7301 22.5548 15.7274 22.5567 15.7265 22.5573C15.726 22.5577 15.7258 22.5578 15.7258 22.5578C15.7258 22.5578 15.7258 22.5578 15.7258 22.5578C15.7258 22.5578 15.7258 22.5578 15.7258 22.5578C15.7258 22.5578 15.7258 22.5578 15.7257 22.5578C15.7256 22.5579 15.7254 22.5579 15.7252 22.558C15.7247 22.5581 15.7237 22.5584 15.7222 22.5587C15.7193 22.5592 15.7134 22.56 15.704 22.56V23.56C15.9836 23.56 16.2403 23.4588 16.4416 23.2576L15.7344 22.5504ZM18.332 19.42C19.183 19.42 19.921 19.2629 20.3926 18.8143L19.7034 18.0897C19.519 18.2651 19.113 18.42 18.332 18.42V19.42ZM20.3882 18.8184C20.8275 18.4105 21.052 17.8891 21.052 17.288H20.052C20.052 17.6149 19.9405 17.8695 19.7078 18.0856L20.3882 18.8184ZM21.052 17.288C21.052 16.6869 20.8275 16.1655 20.3882 15.7576L19.7078 16.4904C19.9405 16.7065 20.052 16.9611 20.052 17.288H21.052ZM20.3926 15.7617C19.921 15.3131 19.183 15.156 18.332 15.156V16.156C19.113 16.156 19.519 16.3109 19.7034 16.4863L20.3926 15.7617ZM18.332 15.156H16.256V16.156H18.332V15.156ZM15.756 15.656V18.92H16.756V15.656H15.756ZM16.256 19.42H18.332V18.42H16.256V19.42Z" fill="white"/>
</svg>
