<svg width="37" height="36" viewBox="0 0 37 36" fill="none" xmlns="http://www.w3.org/2000/svg">
<path d="M14.9 3.60001H22.1C29.3 3.60001 32.9 7.20001 32.9 14.4V21.6C32.9 28.8 29.3 32.4 22.1 32.4H14.9C7.69998 32.4 4.09998 28.8 4.09998 21.6V14.4C4.09998 7.20001 7.69998 3.60001 14.9 3.60001Z" fill="#9E51EC" fill-opacity="0.9"/>
<path d="M32.7506 12.6H29.3C26.3176 12.6 23.9 10.1824 23.9 7.19999V3.74939C28.4225 4.50809 31.9919 8.07749 32.7506 12.6Z" fill="#6E227A"/>
<path d="M16.204 23.06C16.052 23.06 15.924 23.008 15.82 22.904C15.716 22.8 15.664 22.672 15.664 22.52V15.176C15.664 15.024 15.716 14.896 15.82 14.792C15.924 14.68 16.052 14.624 16.204 14.624H18.94C19.7 14.624 20.32 14.752 20.8 15.008C21.28 15.264 21.624 15.592 21.832 15.992C22.04 16.392 22.144 16.824 22.144 17.288C22.144 17.752 22.04 18.184 21.832 18.584C21.624 18.984 21.28 19.312 20.8 19.568C20.32 19.824 19.7 19.952 18.94 19.952H16.756V22.52C16.756 22.672 16.7 22.8 16.588 22.904C16.484 23.008 16.356 23.06 16.204 23.06ZM18.832 18.92C19.648 18.92 20.22 18.764 20.548 18.452C20.884 18.14 21.052 17.752 21.052 17.288C21.052 16.824 20.884 16.436 20.548 16.124C20.22 15.812 19.648 15.656 18.832 15.656H16.756V18.92H18.832Z" fill="white"/>
<path d="M15.82 22.904L16.1736 22.5504H16.1736L15.82 22.904ZM15.82 14.792L16.1736 15.1456L16.1801 15.139L16.1864 15.1322L15.82 14.792ZM21.832 15.992L21.3884 16.2227L21.832 15.992ZM21.832 18.584L21.3884 18.3533L21.3884 18.3533L21.832 18.584ZM16.756 19.952V19.452H16.256V19.952H16.756ZM16.588 22.904L16.2478 22.5376L16.241 22.5439L16.2344 22.5504L16.588 22.904ZM20.548 18.452L20.2077 18.0856L20.2034 18.0897L20.548 18.452ZM20.548 16.124L20.2034 16.4863L20.2078 16.4904L20.548 16.124ZM16.756 15.656V15.156H16.256V15.656H16.756ZM16.756 18.92H16.256V19.42H16.756V18.92ZM16.204 22.56C16.1946 22.56 16.1887 22.5592 16.1858 22.5587C16.1843 22.5584 16.1833 22.5581 16.1828 22.558C16.1826 22.5579 16.1824 22.5579 16.1823 22.5578C16.1822 22.5578 16.1822 22.5578 16.1822 22.5578C16.1822 22.5578 16.1822 22.5578 16.1822 22.5578C16.1822 22.5578 16.1822 22.5578 16.1822 22.5578C16.1822 22.5578 16.182 22.5577 16.1815 22.5573C16.1806 22.5567 16.1779 22.5548 16.1736 22.5504L15.4664 23.2576C15.6677 23.4588 15.9244 23.56 16.204 23.56V22.56ZM16.1736 22.5504C16.1692 22.5461 16.1673 22.5434 16.1667 22.5425C16.1663 22.542 16.1662 22.5418 16.1662 22.5418C16.1662 22.5418 16.1662 22.5418 16.1662 22.5418C16.1662 22.5418 16.1662 22.5418 16.1662 22.5418C16.1662 22.5418 16.1662 22.5418 16.1662 22.5417C16.1661 22.5416 16.1661 22.5414 16.166 22.5412C16.1659 22.5407 16.1656 22.5397 16.1653 22.5382C16.1648 22.5353 16.164 22.5294 16.164 22.52H15.164C15.164 22.7996 15.2652 23.0563 15.4664 23.2576L16.1736 22.5504ZM16.164 22.52V15.176H15.164V22.52H16.164ZM16.164 15.176C16.164 15.1666 16.1648 15.1607 16.1653 15.1578C16.1656 15.1563 16.1659 15.1553 16.166 15.1548C16.1661 15.1546 16.1661 15.1544 16.1662 15.1543C16.1662 15.1542 16.1662 15.1542 16.1662 15.1542C16.1662 15.1542 16.1662 15.1542 16.1662 15.1542C16.1662 15.1542 16.1662 15.1542 16.1662 15.1542C16.1662 15.1542 16.1663 15.154 16.1667 15.1535C16.1673 15.1526 16.1692 15.1499 16.1736 15.1456L15.4664 14.4384C15.2652 14.6397 15.164 14.8964 15.164 15.176H16.164ZM16.1864 15.1322C16.1917 15.1266 16.1949 15.1241 16.1958 15.1235C16.1965 15.1229 16.196 15.1234 16.1944 15.1241C16.1928 15.1248 16.192 15.1249 16.1926 15.1248C16.1933 15.1246 16.1968 15.124 16.204 15.124V14.124C15.9121 14.124 15.6516 14.2385 15.4536 14.4518L16.1864 15.1322ZM16.204 15.124H18.94V14.124H16.204V15.124ZM18.94 15.124C19.6487 15.124 20.1801 15.2441 20.5647 15.4492L21.0353 14.5668C20.4599 14.2599 19.7513 14.124 18.94 14.124V15.124ZM20.5647 15.4492C20.9743 15.6676 21.2359 15.9294 21.3884 16.2227L22.2756 15.7613C22.0121 15.2546 21.5857 14.8604 21.0353 14.5668L20.5647 15.4492ZM21.3884 16.2227C21.5582 16.5493 21.644 16.9019 21.644 17.288H22.644C22.644 16.7461 22.5218 16.2347 22.2756 15.7613L21.3884 16.2227ZM21.644 17.288C21.644 17.6741 21.5582 18.0267 21.3884 18.3533L22.2756 18.8147C22.5218 18.3413 22.644 17.8299 22.644 17.288H21.644ZM21.3884 18.3533C21.2359 18.6466 20.9743 18.9084 20.5647 19.1268L21.0353 20.0092C21.5857 19.7156 22.0121 19.3214 22.2756 18.8147L21.3884 18.3533ZM20.5647 19.1268C20.1801 19.3319 19.6487 19.452 18.94 19.452V20.452C19.7513 20.452 20.4599 20.3161 21.0353 20.0092L20.5647 19.1268ZM18.94 19.452H16.756V20.452H18.94V19.452ZM16.256 19.952V22.52H17.256V19.952H16.256ZM16.256 22.52C16.256 22.5272 16.2554 22.5307 16.2552 22.5314C16.2551 22.532 16.2552 22.5312 16.2559 22.5296C16.2566 22.528 16.2571 22.5275 16.2565 22.5282C16.2559 22.5291 16.2534 22.5323 16.2478 22.5376L16.9282 23.2704C17.1415 23.0724 17.256 22.8119 17.256 22.52H16.256ZM16.2344 22.5504C16.2301 22.5548 16.2274 22.5567 16.2265 22.5573C16.226 22.5577 16.2258 22.5578 16.2258 22.5578C16.2258 22.5578 16.2258 22.5578 16.2258 22.5578C16.2258 22.5578 16.2258 22.5578 16.2258 22.5578C16.2258 22.5578 16.2258 22.5578 16.2257 22.5578C16.2256 22.5579 16.2254 22.5579 16.2252 22.558C16.2247 22.5581 16.2237 22.5584 16.2222 22.5587C16.2193 22.5592 16.2134 22.56 16.204 22.56V23.56C16.4836 23.56 16.7403 23.4588 16.9416 23.2576L16.2344 22.5504ZM18.832 19.42C19.683 19.42 20.421 19.2629 20.8926 18.8143L20.2034 18.0897C20.019 18.2651 19.613 18.42 18.832 18.42V19.42ZM20.8882 18.8184C21.3275 18.4105 21.552 17.8891 21.552 17.288H20.552C20.552 17.6149 20.4405 17.8695 20.2078 18.0856L20.8882 18.8184ZM21.552 17.288C21.552 16.6869 21.3275 16.1655 20.8882 15.7576L20.2078 16.4904C20.4405 16.7065 20.552 16.9611 20.552 17.288H21.552ZM20.8926 15.7617C20.421 15.3131 19.683 15.156 18.832 15.156V16.156C19.613 16.156 20.019 16.3109 20.2034 16.4863L20.8926 15.7617ZM18.832 15.156H16.756V16.156H18.832V15.156ZM16.256 15.656V18.92H17.256V15.656H16.256ZM16.756 19.42H18.832V18.42H16.756V19.42Z" fill="white"/>
</svg>
