<svg width="36" height="36" viewBox="0 0 36 36" fill="none" xmlns="http://www.w3.org/2000/svg">
<path d="M14.4 3.60001H21.6C28.8 3.60001 32.4 7.20001 32.4 14.4V21.6C32.4 28.8 28.8 32.4 21.6 32.4H14.4C7.19998 32.4 3.59998 28.8 3.59998 21.6V14.4C3.59998 7.20001 7.19998 3.60001 14.4 3.60001Z" fill="#FF5391"/>
<path d="M32.2506 12.6H28.8C25.8176 12.6 23.4 10.1824 23.4 7.19999V3.74939C27.9225 4.50809 31.4919 8.07749 32.2506 12.6Z" fill="#AA4368"/>
<path d="M13.462 17.4259L11.1614 21.6023C11.0396 21.8233 10.9772 22.0725 10.9801 22.3254C10.983 22.5783 11.0512 22.826 11.178 23.044C11.3048 23.2621 11.4857 23.4428 11.7028 23.5684C11.92 23.694 12.1658 23.76 12.416 23.76H23.584C23.8297 23.76 24.0712 23.6963 24.2855 23.575C24.4999 23.4537 24.6798 23.2789 24.8082 23.0672C24.9366 22.8555 25.0091 22.614 25.0189 22.3659C25.0286 22.1177 24.9751 21.8712 24.8637 21.6499L23.478 18.8986C23.3786 18.7011 23.2358 18.5294 23.0606 18.3964C22.8854 18.2634 22.6824 18.1727 22.4671 18.1312C22.2519 18.0898 22.0301 18.0987 21.8188 18.1573C21.6075 18.2159 21.4122 18.3226 21.248 18.4692L18.9363 20.5344L15.7601 17.1356C15.6052 16.9699 15.4139 16.8433 15.2016 16.7663C14.9893 16.6892 14.7621 16.6638 14.5383 16.692C14.3145 16.7203 14.1004 16.8015 13.9134 16.929C13.7265 17.0565 13.5718 17.2267 13.462 17.4259ZM16.2402 15.696C16.6935 15.696 17.1283 15.5139 17.4488 15.1899C17.7694 14.8658 17.9495 14.4263 17.9495 13.968C17.9495 13.5097 17.7694 13.0702 17.4488 12.7461C17.1283 12.422 16.6935 12.24 16.2402 12.24C15.7869 12.24 15.3521 12.422 15.0316 12.7461C14.711 13.0702 14.5309 13.5097 14.5309 13.968C14.5309 14.4263 14.711 14.8658 15.0316 15.1899C15.3521 15.5139 15.7869 15.696 16.2402 15.696Z" fill="white"/>
</svg>
